<svg xmlns="http://www.w3.org/2000/svg" xmlns:xlink="http://www.w3.org/1999/xlink" contentStyleType="text/css" data-diagram-type="ACTIVITY" height="2045px" preserveAspectRatio="none" style="width:3659px;height:2045px;background:#FFFFFF;" version="1.1" viewBox="0 0 3659 2045" width="3659px" zoomAndPan="magnify"><?plantuml 1.2026.4beta2?><defs/><g><g class="title" data-source-line="5"><text fill="#000000" font-family="sans-serif" font-size="14" font-weight="700" lengthAdjust="spacing" textLength="410.3135" x="1623.5874" y="32.9951">Diagrama de Activitate #2 &#8212; Rezervare Loc la Clas&#259;</text></g><rect fill="none" height="20.9531" style="stroke:none;stroke-width:1;" width="3612.4882" x="20" y="55.042"/><rect fill="#E8F8F5" height="1969.3906" style="stroke:#E8F8F5;stroke-width:1;" width="95.8164" x="20" y="55.042"/><line style="stroke:#000000;stroke-width:1.5;" x1="20" x2="20" y1="55.042" y2="2024.4326"/><rect fill="#EBF5FB" height="1969.3906" style="stroke:#EBF5FB;stroke-width:1;" width="140.834" x="115.8164" y="55.042"/><line style="stroke:#000000;stroke-width:1.5;" x1="115.8164" x2="115.8164" y1="55.042" y2="2024.4326"/><rect fill="#FEF9E7" height="1969.3906" style="stroke:#FEF9E7;stroke-width:1;" width="147.2939" x="256.6504" y="55.042"/><line style="stroke:#000000;stroke-width:1.5;" x1="256.6504" x2="256.6504" y1="55.042" y2="2024.4326"/><rect fill="#FDEDEC" height="1969.3906" style="stroke:#FDEDEC;stroke-width:1;" width="142.2666" x="403.9443" y="55.042"/><line style="stroke:#000000;stroke-width:1.5;" x1="403.9443" x2="403.9443" y1="55.042" y2="2024.4326"/><ellipse cx="798.6185" cy="90.9951" fill="#222222" rx="10" ry="10" style="stroke:#222222;stroke-width:1;"/><rect fill="#FFEAA7" height="47.9375" rx="12.5" ry="12.5" style="stroke:#2D3436;stroke-width:0.5;" width="148.9063" x="724.1653" y="120.9951"/><text fill="#000000" font-family="sans-serif" font-size="12" lengthAdjust="spacing" textLength="125.4609" x="734.1653" y="142.1338">Acceseaz&#259; sec&#539;iunea</text><text fill="#000000" font-family="sans-serif" font-size="12" font-weight="700" lengthAdjust="spacing" textLength="128.9063" x="734.1653" y="156.1025">&#8222;Clase disponibile"</text><rect fill="#FFEAA7" height="33.9688" rx="12.5" ry="12.5" style="stroke:#2D3436;stroke-width:0.5;" width="159.2129" x="719.012" y="570.5264"/><text fill="#000000" font-family="sans-serif" font-size="12" lengthAdjust="spacing" textLength="139.2129" x="729.012" y="591.665">Selecteaz&#259; clasa dorit&#259;</text><rect fill="#FFEAA7" height="33.9688" rx="12.5" ry="12.5" style="stroke:#2D3436;stroke-width:0.5;" width="178.707" x="709.265" y="624.4951"/><text fill="#000000" font-family="sans-serif" font-size="12" lengthAdjust="spacing" textLength="86.4141" x="719.265" y="645.6338">Apas&#259; butonul</text><text fill="#000000" font-family="sans-serif" font-size="12" font-weight="700" lengthAdjust="spacing" textLength="68.4785" x="809.4935" y="645.6338">&#8222;Rezerv&#259;"</text><rect fill="#FFEAA7" height="33.9688" rx="12.5" ry="12.5" style="stroke:#2D3436;stroke-width:0.5;" width="170.7207" x="552.2109" y="1936.4639"/><text fill="#000000" font-family="sans-serif" font-size="12" lengthAdjust="spacing" textLength="150.7207" x="562.2109" y="1957.6025">Vizualizeaz&#259; confirmarea</text><ellipse cx="637.5713" cy="2001.4326" fill="none" rx="11" ry="11" style="stroke:#222222;stroke-width:1;"/><ellipse cx="637.5713" cy="2001.4326" fill="#222222" rx="6" ry="6" style="stroke:#222222;stroke-width:1;"/><rect fill="#FFEAA7" height="47.9375" rx="12.5" ry="12.5" style="stroke:#2D3436;stroke-width:0.5;" width="184.0039" x="897.972" y="1134.0576"/><text fill="#000000" font-family="sans-serif" font-size="12" lengthAdjust="spacing" textLength="164.0039" x="907.972" y="1155.1963">Decide dac&#259; achizi&#539;ioneaz&#259;</text><text fill="#000000" font-family="sans-serif" font-size="12" lengthAdjust="spacing" textLength="68.6543" x="907.972" y="1169.165">abonament</text><ellipse cx="989.9739" cy="1227.9951" fill="none" rx="11" ry="11" style="stroke:#222222;stroke-width:1;"/><ellipse cx="989.9739" cy="1227.9951" fill="#222222" rx="6" ry="6" style="stroke:#222222;stroke-width:1;"/><line style="stroke:#000000;stroke-width:1.5;" x1="546.2109" x2="546.2109" y1="55.042" y2="2024.4326"/><rect fill="#FFEAA7" height="33.9688" rx="12.5" ry="12.5" style="stroke:#2D3436;stroke-width:0.5;" width="259.5781" x="1636.0905" y="188.9326"/><text fill="#000000" font-family="sans-serif" font-size="12" lengthAdjust="spacing" textLength="239.5781" x="1646.0905" y="210.0713">Trimite GET /api/classes?available=true</text><rect fill="#FFEAA7" height="61.9063" rx="12.5" ry="12.5" style="stroke:#2D3436;stroke-width:0.5;" width="181.4492" x="1675.1549" y="488.6201"/><text fill="#000000" font-family="sans-serif" font-size="12" lengthAdjust="spacing" textLength="132.75" x="1685.1549" y="509.7588">Afi&#537;eaz&#259; lista de clase</text><text fill="#000000" font-family="sans-serif" font-size="12" lengthAdjust="spacing" textLength="161.4492" x="1685.1549" y="523.7275">(nume, antrenor, or&#259;, sal&#259;,</text><text fill="#000000" font-family="sans-serif" font-size="12" lengthAdjust="spacing" textLength="106.4121" x="1685.1549" y="537.6963">locuri disponibile)</text><rect fill="#FFEAA7" height="47.9375" rx="12.5" ry="12.5" style="stroke:#2D3436;stroke-width:0.5;" width="202.9355" x="1664.4117" y="678.4639"/><text fill="#000000" font-family="sans-serif" font-size="12" lengthAdjust="spacing" textLength="182.9355" x="1674.4117" y="699.6025">Trimite POST /api/reservations</text><text fill="#000000" font-family="sans-serif" font-size="12" lengthAdjust="spacing" textLength="144.9141" x="1674.4117" y="713.5713">{ class_id, member_id }</text><rect fill="#FFEAA7" height="61.9063" rx="12.5" ry="12.5" style="stroke:#2D3436;stroke-width:0.5;" width="220.1367" x="1091.9759" y="1136.1514"/><text fill="#000000" font-family="sans-serif" font-size="12" lengthAdjust="spacing" textLength="97.5938" x="1101.9759" y="1157.29">Afi&#537;eaz&#259; eroare:</text><rect fill="#000000" height="3.5" width="3.5" x="1110.9759" y="1164.0889"/><text fill="#000000" font-family="sans-serif" font-size="12" lengthAdjust="spacing" textLength="184.1367" x="1117.9759" y="1171.2588">&#8222;Contul dvs. este restric&#539;ionat.</text><text fill="#000000" font-family="sans-serif" font-size="12" lengthAdjust="spacing" textLength="157.7227" x="1101.9759" y="1185.2275">Re&#238;nnoi&#539;i abonamentul."**</text><ellipse cx="1202.0443" cy="1244.0576" fill="none" rx="11" ry="11" style="stroke:#222222;stroke-width:1;"/><ellipse cx="1202.0443" cy="1244.0576" fill="#222222" rx="6" ry="6" style="stroke:#222222;stroke-width:1;"/><rect fill="#FFEAA7" height="33.9688" rx="12.5" ry="12.5" style="stroke:#2D3436;stroke-width:0.5;" width="213.752" x="1571.4273" y="1136.1514"/><line style="stroke:#2D3436;stroke-width:1;" x1="1571.4273" x2="1581.4273" y1="1153.1357" y2="1153.1357"/><line style="stroke:#2D3436;stroke-width:1;" x1="1571.4273" x2="1581.4273" y1="1155.1357" y2="1155.1357"/><text fill="#000000" font-family="sans-serif" font-size="12" lengthAdjust="spacing" textLength="193.752" x="1581.4273" y="1156.79">Verificare #3: Locuri Disponibile</text><line style="stroke:#2D3436;stroke-width:1;" x1="1775.1793" x2="1785.1793" y1="1153.1357" y2="1153.1357"/><line style="stroke:#2D3436;stroke-width:1;" x1="1775.1793" x2="1785.1793" y1="1155.1357" y2="1155.1357"/><rect fill="#FFEAA7" height="61.9063" rx="12.5" ry="12.5" style="stroke:#2D3436;stroke-width:0.5;" width="175.125" x="1322.1126" y="1539.8701"/><text fill="#000000" font-family="sans-serif" font-size="12" lengthAdjust="spacing" textLength="130.7109" x="1332.1126" y="1561.0088">Afi&#537;eaz&#259; avertisment:</text><rect fill="#000000" height="3.5" width="3.5" x="1341.1126" y="1567.8076"/><text fill="#000000" font-family="sans-serif" font-size="12" lengthAdjust="spacing" textLength="139.125" x="1348.1126" y="1574.9775">&#8222;Ave&#539;i deja o rezervare</text><text fill="#000000" font-family="sans-serif" font-size="12" lengthAdjust="spacing" textLength="146.7012" x="1332.1126" y="1588.9463">pentru aceast&#259; clas&#259;."**</text><ellipse cx="1409.6751" cy="1647.7764" fill="none" rx="11" ry="11" style="stroke:#222222;stroke-width:1;"/><ellipse cx="1409.6751" cy="1647.7764" fill="#222222" rx="6" ry="6" style="stroke:#222222;stroke-width:1;"/><rect fill="#FFEAA7" height="33.9688" rx="12.5" ry="12.5" style="stroke:#2D3436;stroke-width:0.5;" width="137.9551" x="1535.8548" y="1539.8701"/><text fill="#000000" font-family="sans-serif" font-size="12" lengthAdjust="spacing" textLength="117.9551" x="1545.8548" y="1561.0088">Creeaz&#259; rezervarea</text><rect fill="#FFEAA7" height="61.9063" rx="12.5" ry="12.5" style="stroke:#2D3436;stroke-width:0.5;" width="195.1895" x="1507.2376" y="1854.5576"/><text fill="#000000" font-family="sans-serif" font-size="12" lengthAdjust="spacing" textLength="138.7793" x="1517.2376" y="1875.6963">Afi&#537;eaz&#259; mesaj succes:</text><rect fill="#000000" height="3.5" width="3.5" x="1526.2376" y="1882.4951"/><text fill="#000000" font-family="sans-serif" font-size="12" lengthAdjust="spacing" textLength="141.0879" x="1533.2376" y="1889.665">&#8222;Rezervare confirmat&#259;!</text><text fill="#000000" font-family="sans-serif" font-size="12" lengthAdjust="spacing" textLength="175.1895" x="1517.2376" y="1903.6338">Clasa: X | Data: Y | Sala: Z"**</text><rect fill="#FFEAA7" height="61.9063" rx="12.5" ry="12.5" style="stroke:#2D3436;stroke-width:0.5;" width="206.123" x="1770.1556" y="1331.0264"/><text fill="#000000" font-family="sans-serif" font-size="12" lengthAdjust="spacing" textLength="97.5938" x="1780.1556" y="1352.165">Afi&#537;eaz&#259; eroare:</text><rect fill="#000000" height="3.5" width="3.5" x="1789.1556" y="1358.9639"/><text fill="#000000" font-family="sans-serif" font-size="12" lengthAdjust="spacing" textLength="115.9336" x="1796.1556" y="1366.1338">&#8222;Nu mai sunt locuri</text><text fill="#000000" font-family="sans-serif" font-size="12" lengthAdjust="spacing" textLength="186.123" x="1780.1556" y="1380.1025">disponibile la aceast&#259; clas&#259;."**</text><ellipse cx="1873.2171" cy="1438.9326" fill="none" rx="11" ry="11" style="stroke:#222222;stroke-width:1;"/><ellipse cx="1873.2171" cy="1438.9326" fill="#222222" rx="6" ry="6" style="stroke:#222222;stroke-width:1;"/><rect fill="#FFEAA7" height="75.875" rx="12.5" ry="12.5" style="stroke:#2D3436;stroke-width:0.5;" width="220.7051" x="1990.097" y="940.2451"/><text fill="#000000" font-family="sans-serif" font-size="12" lengthAdjust="spacing" textLength="97.5938" x="2000.097" y="961.3838">Afi&#537;eaz&#259; eroare:</text><rect fill="#000000" height="3.5" width="3.5" x="2009.097" y="968.1826"/><text fill="#000000" font-family="sans-serif" font-size="12" lengthAdjust="spacing" textLength="184.7051" x="2016.097" y="975.3525">&#8222;Nu ave&#539;i un abonament activ.</text><text fill="#000000" font-family="sans-serif" font-size="12" lengthAdjust="spacing" textLength="165.252" x="2000.097" y="989.3213">Achizi&#539;iona&#539;i un abonament</text><text fill="#000000" font-family="sans-serif" font-size="12" lengthAdjust="spacing" textLength="159.1934" x="2000.097" y="1003.29">pentru a face rezerv&#259;ri."**</text><rect fill="#FFEAA7" height="47.9375" rx="12.5" ry="12.5" style="stroke:#2D3436;stroke-width:0.5;" width="228.3418" x="1986.2786" y="1051.1201"/><text fill="#000000" font-family="sans-serif" font-size="12" lengthAdjust="spacing" textLength="93.1406" x="1996.2786" y="1072.2588">Afi&#537;eaz&#259; buton:</text><text fill="#000000" font-family="sans-serif" font-size="12" font-weight="700" lengthAdjust="spacing" textLength="208.3418" x="1996.2786" y="1086.2275">&#8222;Achizi&#539;ioneaz&#259; Abonament &#8594;"</text><line style="stroke:#000000;stroke-width:1.5;" x1="1085.9759" x2="1085.9759" y1="55.042" y2="2024.4326"/><rect fill="#FFEAA7" height="47.9375" rx="12.5" ry="12.5" style="stroke:#2D3436;stroke-width:0.5;" width="186.2656" x="2690.6282" y="242.9014"/><text fill="#000000" font-family="sans-serif" font-size="12" lengthAdjust="spacing" textLength="166.2656" x="2700.6282" y="264.04">Interogeaz&#259; clasele viitoare</text><text fill="#000000" font-family="sans-serif" font-size="12" lengthAdjust="spacing" textLength="119.748" x="2700.6282" y="278.0088">cu locuri disponibile</text><rect fill="#FFEAA7" height="33.9688" rx="12.5" ry="12.5" style="stroke:#2D3436;stroke-width:0.5;" width="171.3008" x="2698.1106" y="434.6514"/><text fill="#000000" font-family="sans-serif" font-size="12" lengthAdjust="spacing" textLength="151.3008" x="2708.1106" y="455.79">Returneaz&#259; lista de clase</text><rect fill="#FFEAA7" height="33.9688" rx="12.5" ry="12.5" style="stroke:#2D3436;stroke-width:0.5;" width="210.3184" x="2678.6018" y="746.4014"/><line style="stroke:#2D3436;stroke-width:1;" x1="2678.6018" x2="2688.6018" y1="763.3857" y2="763.3857"/><line style="stroke:#2D3436;stroke-width:1;" x1="2678.6018" x2="2688.6018" y1="765.3857" y2="765.3857"/><text fill="#000000" font-family="sans-serif" font-size="12" lengthAdjust="spacing" textLength="190.3184" x="2688.6018" y="767.04">Verificare #1: Abonament Activ</text><line style="stroke:#2D3436;stroke-width:1;" x1="2878.9202" x2="2888.9202" y1="763.3857" y2="763.3857"/><line style="stroke:#2D3436;stroke-width:1;" x1="2878.9202" x2="2888.9202" y1="765.3857" y2="765.3857"/><polygon fill="#DFE6E9" points="2723.1375,896.2451,2844.3845,896.2451,2856.3845,908.2451,2844.3845,920.2451,2723.1375,920.2451,2711.1375,908.2451,2723.1375,896.2451" style="stroke:#2D3436;stroke-width:0.5;"/><text fill="#000000" font-family="sans-serif" font-size="11" lengthAdjust="spacing" textLength="121.2471" x="2723.1375" y="912.0532">Are abonament activ?</text><text fill="#000000" font-family="sans-serif" font-size="11" lengthAdjust="spacing" textLength="23.7939" x="2687.3435" y="905.6509">[Da]</text><text fill="#000000" font-family="sans-serif" font-size="11" lengthAdjust="spacing" textLength="162.7012" x="2856.3845" y="905.6509">[Nu &#8212; F&#259;r&#259; abonament activ]</text><rect fill="#FFEAA7" height="33.9688" rx="12.5" ry="12.5" style="stroke:#2D3436;stroke-width:0.5;" width="230.1641" x="2304.1089" y="940.2451"/><line style="stroke:#2D3436;stroke-width:1;" x1="2304.1089" x2="2314.1089" y1="957.2295" y2="957.2295"/><line style="stroke:#2D3436;stroke-width:1;" x1="2304.1089" x2="2314.1089" y1="959.2295" y2="959.2295"/><text fill="#000000" font-family="sans-serif" font-size="12" lengthAdjust="spacing" textLength="210.1641" x="2314.1089" y="960.8838">Verificare #2: Nu este restric&#539;ionat</text><line style="stroke:#2D3436;stroke-width:1;" x1="2524.273" x2="2534.273" y1="957.2295" y2="957.2295"/><line style="stroke:#2D3436;stroke-width:1;" x1="2524.273" x2="2534.273" y1="959.2295" y2="959.2295"/><polygon fill="#DFE6E9" points="2347.6131,1092.1514,2490.7689,1092.1514,2502.7689,1104.1514,2490.7689,1116.1514,2347.6131,1116.1514,2335.6131,1104.1514,2347.6131,1092.1514" style="stroke:#2D3436;stroke-width:0.5;"/><text fill="#000000" font-family="sans-serif" font-size="11" lengthAdjust="spacing" textLength="143.1558" x="2347.6131" y="1107.9595">Este &#238;n lista restric&#539;iona&#539;i?</text><text fill="#000000" font-family="sans-serif" font-size="11" lengthAdjust="spacing" textLength="111.9927" x="2223.6204" y="1101.5571">[Da &#8212; Restric&#539;ionat]</text><text fill="#000000" font-family="sans-serif" font-size="11" lengthAdjust="spacing" textLength="97.3135" x="2502.7689" y="1101.5571">[Nu &#8212; Cont valid]</text><polygon fill="#DFE6E9" points="2645.103,1287.0264,2747.2665,1287.0264,2759.2665,1299.0264,2747.2665,1311.0264,2645.103,1311.0264,2633.103,1299.0264,2645.103,1287.0264" style="stroke:#2D3436;stroke-width:0.5;"/><text fill="#000000" font-family="sans-serif" font-size="11" lengthAdjust="spacing" textLength="102.1636" x="2645.103" y="1302.8345">Locuri disponibile?</text><text fill="#000000" font-family="sans-serif" font-size="11" lengthAdjust="spacing" textLength="108.9688" x="2524.1342" y="1296.4321">[Da &#8212; Exist&#259; locuri]</text><text fill="#000000" font-family="sans-serif" font-size="11" lengthAdjust="spacing" textLength="102.0293" x="2759.2665" y="1296.4321">[Nu &#8212; Clas&#259; plin&#259;]</text><rect fill="#FFEAA7" height="33.9688" rx="12.5" ry="12.5" style="stroke:#2D3436;stroke-width:0.5;" width="220.1328" x="2391.2045" y="1331.0264"/><line style="stroke:#2D3436;stroke-width:1;" x1="2391.2045" x2="2401.2045" y1="1348.0107" y2="1348.0107"/><line style="stroke:#2D3436;stroke-width:1;" x1="2391.2045" x2="2401.2045" y1="1350.0107" y2="1350.0107"/><text fill="#000000" font-family="sans-serif" font-size="12" lengthAdjust="spacing" textLength="200.1328" x="2401.2045" y="1351.665">Verificare #4: Rezervare duplicat</text><line style="stroke:#2D3436;stroke-width:1;" x1="2601.3373" x2="2611.3373" y1="1348.0107" y2="1348.0107"/><line style="stroke:#2D3436;stroke-width:1;" x1="2601.3373" x2="2611.3373" y1="1350.0107" y2="1350.0107"/><polygon fill="#DFE6E9" points="2443.0107,1495.8701,2559.5312,1495.8701,2571.5312,1507.8701,2559.5312,1519.8701,2443.0107,1519.8701,2431.0107,1507.8701,2443.0107,1495.8701" style="stroke:#2D3436;stroke-width:0.5;"/><text fill="#000000" font-family="sans-serif" font-size="11" lengthAdjust="spacing" textLength="116.5205" x="2443.0107" y="1511.6782">Rezervare existent&#259;?</text><text fill="#000000" font-family="sans-serif" font-size="11" lengthAdjust="spacing" textLength="116.2358" x="2314.7748" y="1505.2759">[Da &#8212; Deja rezervat]</text><text fill="#000000" font-family="sans-serif" font-size="11" lengthAdjust="spacing" textLength="128.7021" x="2571.5312" y="1505.2759">[Nu &#8212; Rezervare nou&#259;]</text><rect fill="#FFEAA7" height="47.9375" rx="12.5" ry="12.5" style="stroke:#2D3436;stroke-width:0.5;" width="158.1699" x="2543.6288" y="1786.6201"/><text fill="#000000" font-family="sans-serif" font-size="12" lengthAdjust="spacing" textLength="138.1699" x="2553.6288" y="1807.7588">Returneaz&#259; confirmare</text><text fill="#000000" font-family="sans-serif" font-size="12" lengthAdjust="spacing" textLength="83.8359" x="2553.6288" y="1821.7275">(201 Created)</text><line style="stroke:#000000;stroke-width:1.5;" x1="2218.6204" x2="2218.6204" y1="55.042" y2="2024.4326"/><rect fill="#FFEAA7" height="103.8125" rx="12.5" ry="12.5" style="stroke:#2D3436;stroke-width:0.5;" width="243.2305" x="3383.3969" y="310.8389"/><text fill="#000000" font-family="sans-serif" font-size="12" lengthAdjust="spacing" textLength="194.7305" x="3393.3969" y="331.9775">SELECT c.*, t.first_name, f.name</text><text fill="#000000" font-family="sans-serif" font-size="12" lengthAdjust="spacing" textLength="92.6895" x="3393.3969" y="345.9463">FROM classes c</text><text fill="#000000" font-family="sans-serif" font-size="12" lengthAdjust="spacing" textLength="215.1504" x="3393.3969" y="359.915">JOIN trainers t ON c.trainer_id = t.id</text><text fill="#000000" font-family="sans-serif" font-size="12" lengthAdjust="spacing" textLength="217.2773" x="3393.3969" y="373.8838">JOIN facilities f ON c.facility_id = f.id</text><text fill="#000000" font-family="sans-serif" font-size="12" lengthAdjust="spacing" textLength="177.0117" x="3393.3969" y="387.8525">WHERE c.start_time &gt; NOW()</text><text fill="#000000" font-family="sans-serif" font-size="12" lengthAdjust="spacing" textLength="223.2305" x="3393.3969" y="401.8213">AND c.current_bookings &lt; c.capacity</text><rect fill="#FFEAA7" height="75.875" rx="12.5" ry="12.5" style="stroke:#2D3436;stroke-width:0.5;" width="197.1055" x="3406.4594" y="800.3701"/><text fill="#000000" font-family="sans-serif" font-size="12" lengthAdjust="spacing" textLength="177.1055" x="3416.4594" y="821.5088">SELECT * FROM subscriptions</text><text fill="#000000" font-family="sans-serif" font-size="12" lengthAdjust="spacing" textLength="139.9043" x="3416.4594" y="835.4775">WHERE member_id = ?</text><text fill="#000000" font-family="sans-serif" font-size="12" lengthAdjust="spacing" textLength="127.8691" x="3416.4594" y="849.4463">AND status = 'active'</text><text fill="#000000" font-family="sans-serif" font-size="12" lengthAdjust="spacing" textLength="153.293" x="3416.4594" y="863.415">AND end_date &gt;= NOW()</text><rect fill="#FFEAA7" height="47.9375" rx="12.5" ry="12.5" style="stroke:#2D3436;stroke-width:0.5;" width="220.7129" x="3030.0857" y="1009.2139"/><text fill="#000000" font-family="sans-serif" font-size="12" lengthAdjust="spacing" textLength="200.7129" x="3040.0857" y="1030.3525">SELECT * FROM restricted_clients</text><text fill="#000000" font-family="sans-serif" font-size="12" lengthAdjust="spacing" textLength="139.9043" x="3040.0857" y="1044.3213">WHERE member_id = ?</text><rect fill="#FFEAA7" height="61.9063" rx="12.5" ry="12.5" style="stroke:#2D3436;stroke-width:0.5;" width="244.5137" x="3295.1791" y="1205.1201"/><text fill="#000000" font-family="sans-serif" font-size="12" lengthAdjust="spacing" textLength="224.5137" x="3305.1791" y="1226.2588">SELECT COUNT(*) FROM reservations</text><text fill="#000000" font-family="sans-serif" font-size="12" lengthAdjust="spacing" textLength="118.998" x="3305.1791" y="1240.2275">WHERE class_id = ?</text><text fill="#000000" font-family="sans-serif" font-size="12" lengthAdjust="spacing" textLength="152.1211" x="3305.1791" y="1254.1963">AND status = 'confirmed'</text><rect fill="#FFEAA7" height="75.875" rx="12.5" ry="12.5" style="stroke:#2D3436;stroke-width:0.5;" width="192.2363" x="3126.4039" y="1399.9951"/><text fill="#000000" font-family="sans-serif" font-size="12" lengthAdjust="spacing" textLength="172.2363" x="3136.4039" y="1421.1338">SELECT * FROM reservations</text><text fill="#000000" font-family="sans-serif" font-size="12" lengthAdjust="spacing" textLength="139.9043" x="3136.4039" y="1435.1025">WHERE member_id = ?</text><text fill="#000000" font-family="sans-serif" font-size="12" lengthAdjust="spacing" textLength="101.0332" x="3136.4039" y="1449.0713">AND class_id = ?</text><text fill="#000000" font-family="sans-serif" font-size="12" lengthAdjust="spacing" textLength="152.1211" x="3136.4039" y="1463.04">AND status = 'confirmed'</text><rect fill="#FFEAA7" height="75.875" rx="12.5" ry="12.5" style="stroke:#2D3436;stroke-width:0.5;" width="229.1855" x="3229.3722" y="1608.8389"/><text fill="#000000" font-family="sans-serif" font-size="12" lengthAdjust="spacing" textLength="154.8809" x="3239.3722" y="1629.9775">INSERT INTO reservations</text><text fill="#000000" font-family="sans-serif" font-size="12" lengthAdjust="spacing" textLength="209.1855" x="3239.3722" y="1643.9463">(member_id, class_id, reserved_at,</text><text fill="#000000" font-family="sans-serif" font-size="12" lengthAdjust="spacing" textLength="172.4121" x="3239.3722" y="1657.915">status) VALUES (?, ?, NOW(),</text><text fill="#000000" font-family="sans-serif" font-size="12" lengthAdjust="spacing" textLength="72.0059" x="3239.3722" y="1671.8838">'confirmed')</text><rect fill="#FFEAA7" height="61.9063" rx="12.5" ry="12.5" style="stroke:#2D3436;stroke-width:0.5;" width="270.6465" x="3208.6417" y="1704.7139"/><text fill="#000000" font-family="sans-serif" font-size="12" lengthAdjust="spacing" textLength="121.9629" x="3218.6417" y="1725.8525">UPDATE classes SET</text><text fill="#000000" font-family="sans-serif" font-size="12" lengthAdjust="spacing" textLength="250.6465" x="3218.6417" y="1739.8213">current_bookings = current_bookings + 1</text><text fill="#000000" font-family="sans-serif" font-size="12" lengthAdjust="spacing" textLength="83.209" x="3218.6417" y="1753.79">WHERE id = ?</text><line style="stroke:#000000;stroke-width:1.5;" x1="3024.0857" x2="3024.0857" y1="55.042" y2="2024.4326"/><line style="stroke:#000000;stroke-width:1.5;" x1="3630.6274" x2="3630.6274" y1="55.042" y2="2024.4326"/><line style="stroke:#636E72;stroke-width:1;" x1="798.6185" x2="798.6185" y1="100.9951" y2="120.9951"/><polygon fill="#636E72" points="794.6185,110.9951,798.6185,120.9951,802.6185,110.9951,798.6185,114.9951" style="stroke:#636E72;stroke-width:1;"/><line style="stroke:#636E72;stroke-width:1;" x1="798.6185" x2="798.6185" y1="604.4951" y2="624.4951"/><polygon fill="#636E72" points="794.6185,614.4951,798.6185,624.4951,802.6185,614.4951,798.6185,618.4951" style="stroke:#636E72;stroke-width:1;"/><line style="stroke:#636E72;stroke-width:1;" x1="637.5713" x2="637.5713" y1="1970.4326" y2="1990.4326"/><polygon fill="#636E72" points="633.5713,1980.4326,637.5713,1990.4326,641.5713,1980.4326,637.5713,1984.4326" style="stroke:#636E72;stroke-width:1;"/><line style="stroke:#636E72;stroke-width:1;" x1="989.9739" x2="989.9739" y1="1181.9951" y2="1216.9951"/><polygon fill="#636E72" points="985.9739,1206.9951,989.9739,1216.9951,993.9739,1206.9951,989.9739,1210.9951" style="stroke:#636E72;stroke-width:1;"/><line style="stroke:#636E72;stroke-width:1;" x1="1202.0443" x2="1202.0443" y1="1198.0576" y2="1233.0576"/><polygon fill="#636E72" points="1198.0443,1223.0576,1202.0443,1233.0576,1206.0443,1223.0576,1202.0443,1227.0576" style="stroke:#636E72;stroke-width:1;"/><line style="stroke:#636E72;stroke-width:1;" x1="1409.6751" x2="1409.6751" y1="1601.7764" y2="1636.7764"/><polygon fill="#636E72" points="1405.6751,1626.7764,1409.6751,1636.7764,1413.6751,1626.7764,1409.6751,1630.7764" style="stroke:#636E72;stroke-width:1;"/><line style="stroke:#636E72;stroke-width:1;" x1="1873.2171" x2="1873.2171" y1="1392.9326" y2="1427.9326"/><polygon fill="#636E72" points="1869.2171,1417.9326,1873.2171,1427.9326,1877.2171,1417.9326,1873.2171,1421.9326" style="stroke:#636E72;stroke-width:1;"/><line style="stroke:#636E72;stroke-width:1;" x1="2100.4495" x2="2100.4495" y1="1016.1201" y2="1051.1201"/><polygon fill="#636E72" points="2096.4495,1041.1201,2100.4495,1051.1201,2104.4495,1041.1201,2100.4495,1045.1201" style="stroke:#636E72;stroke-width:1;"/><line style="stroke:#636E72;stroke-width:1;" x1="2633.103" x2="2501.2709" y1="1299.0264" y2="1299.0264"/><line style="stroke:#636E72;stroke-width:1;" x1="2501.2709" x2="2501.2709" y1="1299.0264" y2="1331.0264"/><polygon fill="#636E72" points="2497.2709,1321.0264,2501.2709,1331.0264,2505.2709,1321.0264,2501.2709,1325.0264" style="stroke:#636E72;stroke-width:1;"/><line style="stroke:#636E72;stroke-width:1;" x1="2711.1375" x2="2419.191" y1="908.2451" y2="908.2451"/><line style="stroke:#636E72;stroke-width:1;" x1="2419.191" x2="2419.191" y1="908.2451" y2="940.2451"/><polygon fill="#636E72" points="2415.191,930.2451,2419.191,940.2451,2423.191,930.2451,2419.191,934.2451" style="stroke:#636E72;stroke-width:1;"/><line style="stroke:#636E72;stroke-width:1;" x1="3343.965" x2="3343.965" y1="1684.7139" y2="1704.7139"/><polygon fill="#636E72" points="3339.965,1694.7139,3343.965,1704.7139,3347.965,1694.7139,3343.965,1698.7139" style="stroke:#636E72;stroke-width:1;"/><line style="stroke:#636E72;stroke-width:1;" x1="798.6185" x2="798.6185" y1="168.9326" y2="173.9326"/><line style="stroke:#636E72;stroke-width:1;" x1="798.6185" x2="1765.8795" y1="173.9326" y2="173.9326"/><line style="stroke:#636E72;stroke-width:1;" x1="1765.8795" x2="1765.8795" y1="173.9326" y2="188.9326"/><polygon fill="#636E72" points="1761.8795,178.9326,1765.8795,188.9326,1769.8795,178.9326,1765.8795,182.9326" style="stroke:#636E72;stroke-width:1;"/><line style="stroke:#636E72;stroke-width:1;" x1="1765.8795" x2="1765.8795" y1="222.9014" y2="227.9014"/><line style="stroke:#636E72;stroke-width:1;" x1="1765.8795" x2="2783.761" y1="227.9014" y2="227.9014"/><line style="stroke:#636E72;stroke-width:1;" x1="2783.761" x2="2783.761" y1="227.9014" y2="242.9014"/><polygon fill="#636E72" points="2779.761,232.9014,2783.761,242.9014,2787.761,232.9014,2783.761,236.9014" style="stroke:#636E72;stroke-width:1;"/><line style="stroke:#636E72;stroke-width:1;" x1="2783.761" x2="2783.761" y1="290.8389" y2="295.8389"/><line style="stroke:#636E72;stroke-width:1;" x1="2783.761" x2="3505.0121" y1="295.8389" y2="295.8389"/><line style="stroke:#636E72;stroke-width:1;" x1="3505.0121" x2="3505.0121" y1="295.8389" y2="310.8389"/><polygon fill="#636E72" points="3501.0121,300.8389,3505.0121,310.8389,3509.0121,300.8389,3505.0121,304.8389" style="stroke:#636E72;stroke-width:1;"/><line style="stroke:#636E72;stroke-width:1;" x1="3505.0121" x2="3505.0121" y1="414.6514" y2="419.6514"/><line style="stroke:#636E72;stroke-width:1;" x1="3505.0121" x2="2783.761" y1="419.6514" y2="419.6514"/><line style="stroke:#636E72;stroke-width:1;" x1="2783.761" x2="2783.761" y1="419.6514" y2="434.6514"/><polygon fill="#636E72" points="2779.761,424.6514,2783.761,434.6514,2787.761,424.6514,2783.761,428.6514" style="stroke:#636E72;stroke-width:1;"/><line style="stroke:#636E72;stroke-width:1;" x1="2783.761" x2="2783.761" y1="468.6201" y2="473.6201"/><line style="stroke:#636E72;stroke-width:1;" x1="2783.761" x2="1765.8795" y1="473.6201" y2="473.6201"/><line style="stroke:#636E72;stroke-width:1;" x1="1765.8795" x2="1765.8795" y1="473.6201" y2="488.6201"/><polygon fill="#636E72" points="1761.8795,478.6201,1765.8795,488.6201,1769.8795,478.6201,1765.8795,482.6201" style="stroke:#636E72;stroke-width:1;"/><line style="stroke:#636E72;stroke-width:1;" x1="1765.8795" x2="1765.8795" y1="550.5264" y2="555.5264"/><line style="stroke:#636E72;stroke-width:1;" x1="1765.8795" x2="798.6185" y1="555.5264" y2="555.5264"/><line style="stroke:#636E72;stroke-width:1;" x1="798.6185" x2="798.6185" y1="555.5264" y2="570.5264"/><polygon fill="#636E72" points="794.6185,560.5264,798.6185,570.5264,802.6185,560.5264,798.6185,564.5264" style="stroke:#636E72;stroke-width:1;"/><line style="stroke:#636E72;stroke-width:1;" x1="798.6185" x2="798.6185" y1="658.4639" y2="663.4639"/><line style="stroke:#636E72;stroke-width:1;" x1="798.6185" x2="1765.8795" y1="663.4639" y2="663.4639"/><line style="stroke:#636E72;stroke-width:1;" x1="1765.8795" x2="1765.8795" y1="663.4639" y2="678.4639"/><polygon fill="#636E72" points="1761.8795,668.4639,1765.8795,678.4639,1769.8795,668.4639,1765.8795,672.4639" style="stroke:#636E72;stroke-width:1;"/><line style="stroke:#636E72;stroke-width:1;" x1="1765.8795" x2="1765.8795" y1="726.4014" y2="731.4014"/><line style="stroke:#636E72;stroke-width:1;" x1="1765.8795" x2="2783.761" y1="731.4014" y2="731.4014"/><line style="stroke:#636E72;stroke-width:1;" x1="2783.761" x2="2783.761" y1="731.4014" y2="746.4014"/><polygon fill="#636E72" points="2779.761,736.4014,2783.761,746.4014,2787.761,736.4014,2783.761,740.4014" style="stroke:#636E72;stroke-width:1;"/><line style="stroke:#636E72;stroke-width:1;" x1="2783.761" x2="2783.761" y1="780.3701" y2="785.3701"/><line style="stroke:#636E72;stroke-width:1;" x1="2783.761" x2="3505.0121" y1="785.3701" y2="785.3701"/><line style="stroke:#636E72;stroke-width:1;" x1="3505.0121" x2="3505.0121" y1="785.3701" y2="800.3701"/><polygon fill="#636E72" points="3501.0121,790.3701,3505.0121,800.3701,3509.0121,790.3701,3505.0121,794.3701" style="stroke:#636E72;stroke-width:1;"/><line style="stroke:#636E72;stroke-width:1;" x1="2419.191" x2="2419.191" y1="974.2139" y2="991.7139"/><line style="stroke:#636E72;stroke-width:1;" x1="2419.191" x2="3140.4421" y1="991.7139" y2="991.7139"/><line style="stroke:#636E72;stroke-width:1;" x1="3140.4421" x2="3140.4421" y1="991.7139" y2="1009.2139"/><polygon fill="#636E72" points="3136.4421,999.2139,3140.4421,1009.2139,3144.4421,999.2139,3140.4421,1003.2139" style="stroke:#636E72;stroke-width:1;"/><line style="stroke:#636E72;stroke-width:1;" x1="1678.3033" x2="1678.3033" y1="1170.1201" y2="1187.6201"/><line style="stroke:#636E72;stroke-width:1;" x1="1678.3033" x2="3417.4359" y1="1187.6201" y2="1187.6201"/><line style="stroke:#636E72;stroke-width:1;" x1="3417.4359" x2="3417.4359" y1="1187.6201" y2="1205.1201"/><polygon fill="#636E72" points="3413.4359,1195.1201,3417.4359,1205.1201,3421.4359,1195.1201,3417.4359,1199.1201" style="stroke:#636E72;stroke-width:1;"/><line style="stroke:#636E72;stroke-width:1;" x1="2501.2709" x2="2501.2709" y1="1364.9951" y2="1382.4951"/><line style="stroke:#636E72;stroke-width:1;" x1="2501.2709" x2="3222.5221" y1="1382.4951" y2="1382.4951"/><line style="stroke:#636E72;stroke-width:1;" x1="3222.5221" x2="3222.5221" y1="1382.4951" y2="1399.9951"/><polygon fill="#636E72" points="3218.5221,1389.9951,3222.5221,1399.9951,3226.5221,1389.9951,3222.5221,1393.9951" style="stroke:#636E72;stroke-width:1;"/><line style="stroke:#636E72;stroke-width:1;" x1="1604.8323" x2="1604.8323" y1="1573.8389" y2="1591.3389"/><line style="stroke:#636E72;stroke-width:1;" x1="1604.8323" x2="3343.965" y1="1591.3389" y2="1591.3389"/><line style="stroke:#636E72;stroke-width:1;" x1="3343.965" x2="3343.965" y1="1591.3389" y2="1608.8389"/><polygon fill="#636E72" points="3339.965,1598.8389,3343.965,1608.8389,3347.965,1598.8389,3343.965,1602.8389" style="stroke:#636E72;stroke-width:1;"/><line style="stroke:#636E72;stroke-width:1;" x1="3343.965" x2="3343.965" y1="1766.6201" y2="1771.6201"/><line style="stroke:#636E72;stroke-width:1;" x1="3343.965" x2="2622.7138" y1="1771.6201" y2="1771.6201"/><line style="stroke:#636E72;stroke-width:1;" x1="2622.7138" x2="2622.7138" y1="1771.6201" y2="1786.6201"/><polygon fill="#636E72" points="2618.7138,1776.6201,2622.7138,1786.6201,2626.7138,1776.6201,2622.7138,1780.6201" style="stroke:#636E72;stroke-width:1;"/><line style="stroke:#636E72;stroke-width:1;" x1="2622.7138" x2="2622.7138" y1="1834.5576" y2="1839.5576"/><line style="stroke:#636E72;stroke-width:1;" x1="2622.7138" x2="1604.8323" y1="1839.5576" y2="1839.5576"/><line style="stroke:#636E72;stroke-width:1;" x1="1604.8323" x2="1604.8323" y1="1839.5576" y2="1854.5576"/><polygon fill="#636E72" points="1600.8323,1844.5576,1604.8323,1854.5576,1608.8323,1844.5576,1604.8323,1848.5576" style="stroke:#636E72;stroke-width:1;"/><line style="stroke:#636E72;stroke-width:1;" x1="1604.8323" x2="1604.8323" y1="1916.4639" y2="1921.4639"/><line style="stroke:#636E72;stroke-width:1;" x1="1604.8323" x2="637.5713" y1="1921.4639" y2="1921.4639"/><line style="stroke:#636E72;stroke-width:1;" x1="637.5713" x2="637.5713" y1="1921.4639" y2="1936.4639"/><polygon fill="#636E72" points="633.5713,1926.4639,637.5713,1936.4639,641.5713,1926.4639,637.5713,1930.4639" style="stroke:#636E72;stroke-width:1;"/><line style="stroke:#636E72;stroke-width:1;" x1="2431.0107" x2="1409.6751" y1="1507.8701" y2="1507.8701"/><line style="stroke:#636E72;stroke-width:1;" x1="1409.6751" x2="1409.6751" y1="1507.8701" y2="1539.8701"/><polygon fill="#636E72" points="1405.6751,1529.8701,1409.6751,1539.8701,1413.6751,1529.8701,1409.6751,1533.8701" style="stroke:#636E72;stroke-width:1;"/><line style="stroke:#636E72;stroke-width:1;" x1="2571.5312" x2="2583.5312" y1="1507.8701" y2="1507.8701"/><line style="stroke:#636E72;stroke-width:1;" x1="2583.5312" x2="2583.5312" y1="1507.8701" y2="1525.8701"/><line style="stroke:#636E72;stroke-width:1;" x1="2583.5312" x2="1604.8323" y1="1525.8701" y2="1525.8701"/><line style="stroke:#636E72;stroke-width:1;" x1="1604.8323" x2="1604.8323" y1="1525.8701" y2="1539.8701"/><polygon fill="#636E72" points="1600.8323,1529.8701,1604.8323,1539.8701,1608.8323,1529.8701,1604.8323,1533.8701" style="stroke:#636E72;stroke-width:1;"/><line style="stroke:#636E72;stroke-width:1;" x1="3222.5221" x2="3222.5221" y1="1475.8701" y2="1480.8701"/><line style="stroke:#636E72;stroke-width:1;" x1="3222.5221" x2="2501.2709" y1="1480.8701" y2="1480.8701"/><line style="stroke:#636E72;stroke-width:1;" x1="2501.2709" x2="2501.2709" y1="1480.8701" y2="1495.8701"/><polygon fill="#636E72" points="2497.2709,1485.8701,2501.2709,1495.8701,2505.2709,1485.8701,2501.2709,1489.8701" style="stroke:#636E72;stroke-width:1;"/><line style="stroke:#636E72;stroke-width:1;" x1="2759.2665" x2="2771.2665" y1="1299.0264" y2="1299.0264"/><line style="stroke:#636E72;stroke-width:1;" x1="2771.2665" x2="2771.2665" y1="1299.0264" y2="1317.0264"/><line style="stroke:#636E72;stroke-width:1;" x1="2771.2665" x2="1873.2171" y1="1317.0264" y2="1317.0264"/><line style="stroke:#636E72;stroke-width:1;" x1="1873.2171" x2="1873.2171" y1="1317.0264" y2="1331.0264"/><polygon fill="#636E72" points="1869.2171,1321.0264,1873.2171,1331.0264,1877.2171,1321.0264,1873.2171,1325.0264" style="stroke:#636E72;stroke-width:1;"/><line style="stroke:#636E72;stroke-width:1;" x1="3417.4359" x2="3417.4359" y1="1267.0264" y2="1272.0264"/><line style="stroke:#636E72;stroke-width:1;" x1="3417.4359" x2="2696.1848" y1="1272.0264" y2="1272.0264"/><line style="stroke:#636E72;stroke-width:1;" x1="2696.1848" x2="2696.1848" y1="1272.0264" y2="1287.0264"/><polygon fill="#636E72" points="2692.1848,1277.0264,2696.1848,1287.0264,2700.1848,1277.0264,2696.1848,1281.0264" style="stroke:#636E72;stroke-width:1;"/><line style="stroke:#636E72;stroke-width:1;" x1="2335.6131" x2="1202.0443" y1="1104.1514" y2="1104.1514"/><line style="stroke:#636E72;stroke-width:1;" x1="1202.0443" x2="1202.0443" y1="1104.1514" y2="1136.1514"/><polygon fill="#636E72" points="1198.0443,1126.1514,1202.0443,1136.1514,1206.0443,1126.1514,1202.0443,1130.1514" style="stroke:#636E72;stroke-width:1;"/><line style="stroke:#636E72;stroke-width:1;" x1="2502.7689" x2="2514.7689" y1="1104.1514" y2="1104.1514"/><line style="stroke:#636E72;stroke-width:1;" x1="2514.7689" x2="2514.7689" y1="1104.1514" y2="1122.1514"/><line style="stroke:#636E72;stroke-width:1;" x1="2514.7689" x2="1678.3033" y1="1122.1514" y2="1122.1514"/><line style="stroke:#636E72;stroke-width:1;" x1="1678.3033" x2="1678.3033" y1="1122.1514" y2="1136.1514"/><polygon fill="#636E72" points="1674.3033,1126.1514,1678.3033,1136.1514,1682.3033,1126.1514,1678.3033,1130.1514" style="stroke:#636E72;stroke-width:1;"/><line style="stroke:#636E72;stroke-width:1;" x1="3140.4421" x2="3140.4421" y1="1057.1514" y2="1074.6514"/><line style="stroke:#636E72;stroke-width:1;" x1="3140.4421" x2="2419.191" y1="1074.6514" y2="1074.6514"/><line style="stroke:#636E72;stroke-width:1;" x1="2419.191" x2="2419.191" y1="1074.6514" y2="1092.1514"/><polygon fill="#636E72" points="2415.191,1082.1514,2419.191,1092.1514,2423.191,1082.1514,2419.191,1086.1514" style="stroke:#636E72;stroke-width:1;"/><line style="stroke:#636E72;stroke-width:1;" x1="2100.4495" x2="2100.4495" y1="1099.0576" y2="1116.5576"/><line style="stroke:#636E72;stroke-width:1;" x1="2100.4495" x2="989.9739" y1="1116.5576" y2="1116.5576"/><line style="stroke:#636E72;stroke-width:1;" x1="989.9739" x2="989.9739" y1="1116.5576" y2="1134.0576"/><polygon fill="#636E72" points="985.9739,1124.0576,989.9739,1134.0576,993.9739,1124.0576,989.9739,1128.0576" style="stroke:#636E72;stroke-width:1;"/><line style="stroke:#636E72;stroke-width:1;" x1="2856.3845" x2="2868.3845" y1="908.2451" y2="908.2451"/><line style="stroke:#636E72;stroke-width:1;" x1="2868.3845" x2="2868.3845" y1="908.2451" y2="926.2451"/><line style="stroke:#636E72;stroke-width:1;" x1="2868.3845" x2="2100.4495" y1="926.2451" y2="926.2451"/><line style="stroke:#636E72;stroke-width:1;" x1="2100.4495" x2="2100.4495" y1="926.2451" y2="940.2451"/><polygon fill="#636E72" points="2096.4495,930.2451,2100.4495,940.2451,2104.4495,930.2451,2100.4495,934.2451" style="stroke:#636E72;stroke-width:1;"/><line style="stroke:#636E72;stroke-width:1;" x1="3505.0121" x2="3505.0121" y1="876.2451" y2="881.2451"/><line style="stroke:#636E72;stroke-width:1;" x1="3505.0121" x2="2783.761" y1="881.2451" y2="881.2451"/><line style="stroke:#636E72;stroke-width:1;" x1="2783.761" x2="2783.761" y1="881.2451" y2="896.2451"/><polygon fill="#636E72" points="2779.761,886.2451,2783.761,896.2451,2787.761,886.2451,2783.761,890.2451" style="stroke:#636E72;stroke-width:1;"/><text fill="#000000" font-family="sans-serif" font-size="18" lengthAdjust="spacing" textLength="74.373" x="30.7217" y="71.75">Membru</text><text fill="#000000" font-family="sans-serif" font-size="18" lengthAdjust="spacing" textLength="119.3906" x="126.5381" y="71.75">Frontend (UI)</text><text fill="#000000" font-family="sans-serif" font-size="18" lengthAdjust="spacing" textLength="125.8506" x="267.3721" y="71.75">Backend (API)</text><text fill="#000000" font-family="sans-serif" font-size="18" lengthAdjust="spacing" textLength="120.8232" x="414.666" y="71.75">Baza de Date</text><text fill="#000000" font-family="sans-serif" font-size="18" lengthAdjust="spacing" textLength="74.373" x="778.9069" y="71.75">Membru</text><text fill="#000000" font-family="sans-serif" font-size="18" lengthAdjust="spacing" textLength="119.3906" x="1592.6028" y="71.75">Frontend (UI)</text><text fill="#000000" font-family="sans-serif" font-size="18" lengthAdjust="spacing" textLength="125.8506" x="2558.4278" y="71.75">Backend (API)</text><text fill="#000000" font-family="sans-serif" font-size="18" lengthAdjust="spacing" textLength="120.8232" x="3266.9449" y="71.75">Baza de Date</text><?plantuml-src fLRXRjis4FxlfxWjFs9xdjiaRT8wSmF5aZiFYPtPJhgk7W9QebEsCcbGbBUaBb30m1vWs9zXm1vXBp7_w7FaINOK9KksbNH3ZI2IIDxTTtVVtN4Rwf_nAso3rUYtBbhzbs2thETTwnIsTk7sm-_GfJTKJecaS29Sy0aqV18ivYZHTRx_UhyIFNOUniyTNFyi88efdqAvR3Do9ScOW4V1SXMRCaKK_GIeShbG2DuoFY4e2iI8NSEx0i0nSTzUIH5oho5y8M6hsNGiwq3l2EbH6Q_ksdkFzlPn5UsF1VSsnEoci-yypHp8bRQa53_7Y_jx-yx1Rk5zeJ3RSfuqdpGVp-2KZeSoX9bUEcu-RXxFe2a5LvHxK3nlbQATfjDywXpC8kZHXdMMxDYExJJqpaqK85k7PeO6ZDvP8L14gaBDSbqQK7Apc4D0tOz_if1JCk3byks7ltJ4A7Wic0ZEXiodNvRBXwXY1SUiKEjBDcQe_hdJXmTamXwuA1ZGu8XC2VF9qATr9KEgHLU0ecWB5KbnPG1eCOgfdJAc16PkmDqGVE66acLH63sfMwYcvvmuZJwurN85L7N4PA0kEHdJ2eog-ZdWpMxd569Su0xuTvrM6vGaZ5CPW89E6wNZxqlcGHtrC2y-Do8kyvbYA3eo9-ELQtDq51rzyQtJTN0lYkobOcCApw3TUL4i3RZLjd47FP6KgykX44Z1gm2-qOjaWihKTLvukbI5afle-0mLQv-ZCENbmHgnZt_a7Hxm8WzrD0XN24382WYvc5SW83u-1dmpoAN335TgFKoBgz8ieMeXcLhC3z7gHDSL34CbUEX3n1nJV8lv9mXprkd5Z958GgnMnGGF1loToHG6jm9Zn61IyZulGlNw1PLin5nTwLixDR26GcUSAzCJwlMxwLA6Y1L1E0nSoIQnSPF6r6mTZap-CA8g3F1xEseRTDii8vfBJrVNixh9TWvCDi8t14YMu28LHoLGhoc7uYkR_5GgO5TOysUt1kqGQ83QCK9ACbsXg495RW6iEORogwx5GefwbwxFq6w-Vuck5Sm06hMZRV_pDuyPjO82_sSzYDjk5gPn2dMlCK2lPUcAFG3zhILz1yyYaxnfKCtplJhWNOgGk62uaiOqzAiHtxJoG8c9Darzx635LnX43KuhXYdncPS0MultNarF2rqATbeASQnpeft6kz4vR_UBvT8ox1asntqXPdGUdrp1iMUDgRUTMbhBXSd6oKQTRYJ0-GKJfJj0T3JnSyFJHxNCXFJ2YO_hQkbfhgzvxDfmCwTk_fVd-RuRxrF0L3k9AL_CD_otwHjDq-YaIjtFv-0w3ycKIiK2pQQ4ZDQKQfPvMgr85ElPDC53EA29IqaKS3UwNwGKpD9G_rQfcFh2HRYOPu7M6f8QE4jhv33ZHrvcKAhLxZdTFhJQ_SvQPehBf5GoZTMSmSv054u0av8IN5WdvquFYaSLmB-ed-5k9a-b39JQ-PbjzPtbNEqvVJspruPS7JQMleATX32P3dHV_j5OTXZ6UA9457SVxW363CFXPT7zbuIFQK3Uu0JGjw0ausbg4YkOtYy6N5-7I0r-W9aEFRwznBSUyV7jHpFebfQJmRaqUS5kGkmxD-leoHrSuHuRcO-r3XQH3B1SUPOq-QxUtM5HsvWmz1lxeMaK0vvfAlgwV0-lKwG6vnBlAjRcOYvrJQtEF0Dw4_2zO8afmf2lQyDPOBclsGrRJgILGscLwZiSZGiASR5gah6itUWEiopyLA_PJMyMjx_-beXdKbspgSkmBZtYQhVNn0TyYKh7qSGmYjk_?></g></svg>