<svg xmlns="http://www.w3.org/2000/svg" xmlns:xlink="http://www.w3.org/1999/xlink" contentStyleType="text/css" data-diagram-type="ACTIVITY" height="1587px" preserveAspectRatio="none" style="width:3825px;height:1587px;background:#FFFFFF;" version="1.1" viewBox="0 0 3825 1587" width="3825px" zoomAndPan="magnify"><?plantuml 1.2026.4beta2?><defs/><g><g class="title" data-source-line="5"><text fill="#000000" font-family="sans-serif" font-size="14" font-weight="700" lengthAdjust="spacing" textLength="432.9336" x="1695.3423" y="32.9951">Diagrama de Activitate #1 &#8212; Procesul de Autentificare</text></g><rect fill="none" height="20.9531" style="stroke:none;stroke-width:1;" width="3778.6182" x="20" y="55.042"/><rect fill="#E8F8F5" height="1511.9531" style="stroke:#E8F8F5;stroke-width:1;" width="102.6279" x="20" y="55.042"/><line style="stroke:#2D3436;stroke-width:1.5;" x1="20" x2="20" y1="55.042" y2="1566.9951"/><rect fill="#EBF5FB" height="1511.9531" style="stroke:#EBF5FB;stroke-width:1;" width="140.834" x="122.6279" y="55.042"/><line style="stroke:#2D3436;stroke-width:1.5;" x1="122.6279" x2="122.6279" y1="55.042" y2="1566.9951"/><rect fill="#FEF9E7" height="1511.9531" style="stroke:#FEF9E7;stroke-width:1;" width="147.2939" x="263.4619" y="55.042"/><line style="stroke:#2D3436;stroke-width:1.5;" x1="263.4619" x2="263.4619" y1="55.042" y2="1566.9951"/><rect fill="#FDEDEC" height="1511.9531" style="stroke:#FDEDEC;stroke-width:1;" width="142.2666" x="410.7559" y="55.042"/><line style="stroke:#2D3436;stroke-width:1.5;" x1="410.7559" x2="410.7559" y1="55.042" y2="1566.9951"/><ellipse cx="998.558" cy="90.9951" fill="#222222" rx="10" ry="10" style="stroke:#222222;stroke-width:1;"/><rect fill="#FFEAA7" height="33.9688" rx="12.5" ry="12.5" style="stroke:#2D3436;stroke-width:0.5;" width="179.9844" x="908.5658" y="120.9951"/><text fill="#000000" font-family="sans-serif" font-size="12" lengthAdjust="spacing" textLength="159.9844" x="918.5658" y="142.1338">Acceseaz&#259; pagina de login</text><rect fill="#FFEAA7" height="33.9688" rx="12.5" ry="12.5" style="stroke:#2D3436;stroke-width:0.5;" width="169.3848" x="913.8656" y="242.9014"/><text fill="#000000" font-family="sans-serif" font-size="12" lengthAdjust="spacing" textLength="149.3848" x="923.8656" y="264.04">Introduce email &#537;i parol&#259;</text><rect fill="#FFEAA7" height="33.9688" rx="12.5" ry="12.5" style="stroke:#2D3436;stroke-width:0.5;" width="213.0664" x="892.0248" y="296.8701"/><text fill="#000000" font-family="sans-serif" font-size="12" lengthAdjust="spacing" textLength="86.4141" x="902.0248" y="318.0088">Apas&#259; butonul</text><text fill="#000000" font-family="sans-serif" font-size="12" font-weight="700" lengthAdjust="spacing" textLength="102.8379" x="992.2533" y="318.0088">&#8222;Autentificare"</text><rect fill="#FFEAA7" height="47.9375" rx="12.5" ry="12.5" style="stroke:#2D3436;stroke-width:0.5;" width="158.1816" x="559.0225" y="1465.0576"/><text fill="#000000" font-family="sans-serif" font-size="12" lengthAdjust="spacing" textLength="138.1816" x="569.0225" y="1486.1963">Vede pagina principal&#259;</text><text fill="#000000" font-family="sans-serif" font-size="12" lengthAdjust="spacing" textLength="91.0371" x="569.0225" y="1500.165">conform rolului</text><ellipse cx="638.1133" cy="1543.9951" fill="none" rx="11" ry="11" style="stroke:#222222;stroke-width:1;"/><ellipse cx="638.1133" cy="1543.9951" fill="#222222" rx="6" ry="6" style="stroke:#222222;stroke-width:1;"/><rect fill="#FFEAA7" height="33.9688" rx="12.5" ry="12.5" style="stroke:#2D3436;stroke-width:0.5;" width="161.5801" x="727.2041" y="1239.1826"/><text fill="#000000" font-family="sans-serif" font-size="12" lengthAdjust="spacing" textLength="141.5801" x="737.2041" y="1260.3213">Decide dac&#259; re&#238;ncearc&#259;</text><ellipse cx="807.9941" cy="1319.1514" fill="none" rx="11" ry="11" style="stroke:#222222;stroke-width:1;"/><ellipse cx="807.9941" cy="1319.1514" fill="#222222" rx="6" ry="6" style="stroke:#222222;stroke-width:1;"/><rect fill="#FFEAA7" height="33.9688" rx="12.5" ry="12.5" style="stroke:#2D3436;stroke-width:0.5;" width="129.3184" x="1115.0912" y="530.7139"/><text fill="#000000" font-family="sans-serif" font-size="12" lengthAdjust="spacing" textLength="109.3184" x="1125.0912" y="551.8525">Corecteaz&#259; datele</text><ellipse cx="1179.7504" cy="595.6826" fill="none" rx="11" ry="11" style="stroke:#222222;stroke-width:1;"/><ellipse cx="1179.7504" cy="595.6826" fill="#222222" rx="6" ry="6" style="stroke:#222222;stroke-width:1;"/><line style="stroke:#2D3436;stroke-width:1.5;" x1="553.0225" x2="553.0225" y1="55.042" y2="1566.9951"/><rect fill="#FFEAA7" height="47.9375" rx="12.5" ry="12.5" style="stroke:#2D3436;stroke-width:0.5;" width="235.7246" x="2110.577" y="174.9639"/><text fill="#000000" font-family="sans-serif" font-size="12" lengthAdjust="spacing" textLength="215.7246" x="2120.577" y="196.1025">Afi&#537;eaz&#259; formularul de autentificare</text><text fill="#000000" font-family="sans-serif" font-size="12" lengthAdjust="spacing" textLength="145.0078" x="2120.577" y="210.0713">(c&#226;mpuri: email, parol&#259;)</text><rect fill="#FFEAA7" height="47.9375" rx="12.5" ry="12.5" style="stroke:#2D3436;stroke-width:0.5;" width="188.9375" x="2133.9705" y="350.8389"/><text fill="#000000" font-family="sans-serif" font-size="12" lengthAdjust="spacing" textLength="153.6738" x="2143.9705" y="371.9775">Valideaz&#259; c&#226;mpurile local</text><text fill="#000000" font-family="sans-serif" font-size="12" lengthAdjust="spacing" textLength="168.9375" x="2143.9705" y="385.9463">(format email, parol&#259; nevid)</text><polygon fill="#DFE6E9" points="2175.2064,418.7764,2281.6722,418.7764,2293.6722,430.7764,2281.6722,442.7764,2175.2064,442.7764,2163.2064,430.7764,2175.2064,418.7764" style="stroke:#2D3436;stroke-width:0.5;"/><text fill="#000000" font-family="sans-serif" font-size="11" lengthAdjust="spacing" textLength="106.4658" x="2175.2064" y="434.5845">Validare local&#259; OK?</text><text fill="#000000" font-family="sans-serif" font-size="11" lengthAdjust="spacing" textLength="23.7939" x="2139.4124" y="428.1821">[Da]</text><text fill="#000000" font-family="sans-serif" font-size="11" lengthAdjust="spacing" textLength="132.4941" x="2293.6722" y="428.1821">[Nu &#8212; erori de validare]</text><rect fill="#FFEAA7" height="61.9063" rx="12.5" ry="12.5" style="stroke:#2D3436;stroke-width:0.5;" width="180.7207" x="1254.4096" y="822.5264"/><text fill="#000000" font-family="sans-serif" font-size="12" lengthAdjust="spacing" textLength="94.2773" x="1264.4096" y="843.665">Afi&#537;eaz&#259; mesaj:</text><rect fill="#000000" height="3.5" width="3.5" x="1273.4096" y="850.4639"/><text fill="#000000" font-family="sans-serif" font-size="12" lengthAdjust="spacing" textLength="144.7207" x="1280.4096" y="857.6338">&#8222;Cont blocat. Contacta&#539;i</text><text fill="#000000" font-family="sans-serif" font-size="12" lengthAdjust="spacing" textLength="113.4316" x="1264.4096" y="871.6025">administratorul."**</text><ellipse cx="1344.7699" cy="929.4014" fill="none" rx="11" ry="11" style="stroke:#222222;stroke-width:1;"/><ellipse cx="1344.7699" cy="929.4014" fill="#222222" rx="6" ry="6" style="stroke:#222222;stroke-width:1;"/><rect fill="#FFEAA7" height="33.9688" rx="12.5" ry="12.5" style="stroke:#2D3436;stroke-width:0.5;" width="202.2852" x="1497.5356" y="1264.1514"/><text fill="#000000" font-family="sans-serif" font-size="12" lengthAdjust="spacing" textLength="182.2852" x="1507.5356" y="1285.29">Stocheaz&#259; JWT &#238;n localStorage</text><polygon fill="#DFE6E9" points="1541.3498,1333.1201,1656.0065,1333.1201,1668.0065,1345.1201,1656.0065,1357.1201,1541.3498,1357.1201,1529.3498,1345.1201,1541.3498,1333.1201" style="stroke:#2D3436;stroke-width:0.5;"/><text fill="#000000" font-family="sans-serif" font-size="11" lengthAdjust="spacing" textLength="114.6567" x="1541.3498" y="1348.9282">Rol = Administrator?</text><text fill="#000000" font-family="sans-serif" font-size="11" lengthAdjust="spacing" textLength="23.7939" x="1505.5558" y="1342.5259">[Da]</text><text fill="#000000" font-family="sans-serif" font-size="11" lengthAdjust="spacing" textLength="54.0332" x="1668.0065" y="1342.5259">[Membru]</text><rect fill="#FFEAA7" height="47.9375" rx="12.5" ry="12.5" style="stroke:#2D3436;stroke-width:0.5;" width="140.3984" x="1445.1303" y="1367.1201"/><text fill="#000000" font-family="sans-serif" font-size="12" lengthAdjust="spacing" textLength="111.4629" x="1455.1303" y="1388.2588">Redirec&#539;ioneaz&#259; la</text><text fill="#000000" font-family="sans-serif" font-size="12" font-weight="700" lengthAdjust="spacing" textLength="120.3984" x="1455.1303" y="1402.2275">Dashboard Admin</text><rect fill="#FFEAA7" height="47.9375" rx="12.5" ry="12.5" style="stroke:#2D3436;stroke-width:0.5;" width="152.9961" x="1605.5287" y="1367.1201"/><text fill="#000000" font-family="sans-serif" font-size="12" lengthAdjust="spacing" textLength="111.4629" x="1615.5287" y="1388.2588">Redirec&#539;ioneaz&#259; la</text><text fill="#000000" font-family="sans-serif" font-size="12" font-weight="700" lengthAdjust="spacing" textLength="132.9961" x="1615.5287" y="1402.2275">Dashboard Membru</text><polygon fill="#DFE6E9" points="1598.6781,1421.0576,1610.6781,1433.0576,1598.6781,1445.0576,1586.6781,1433.0576,1598.6781,1421.0576" style="stroke:#2D3436;stroke-width:0.5;"/><rect fill="#FFEAA7" height="61.9063" rx="12.5" ry="12.5" style="stroke:#2D3436;stroke-width:0.5;" width="156.4688" x="1768.5248" y="1322.1201"/><text fill="#000000" font-family="sans-serif" font-size="12" lengthAdjust="spacing" textLength="94.2773" x="1778.5248" y="1343.2588">Afi&#537;eaz&#259; mesaj:</text><rect fill="#000000" height="3.5" width="3.5" x="1787.5248" y="1350.0576"/><text fill="#000000" font-family="sans-serif" font-size="12" lengthAdjust="spacing" textLength="120.4688" x="1794.5248" y="1357.2275">&#8222;Cont blocat dup&#259; 5</text><text fill="#000000" font-family="sans-serif" font-size="12" lengthAdjust="spacing" textLength="117.9023" x="1778.5248" y="1371.1963">&#238;ncerc&#259;ri e&#537;uate."**</text><ellipse cx="1846.7592" cy="1430.0264" fill="none" rx="11" ry="11" style="stroke:#222222;stroke-width:1;"/><ellipse cx="1846.7592" cy="1430.0264" fill="#222222" rx="6" ry="6" style="stroke:#222222;stroke-width:1;"/><rect fill="#FFEAA7" height="61.9063" rx="12.5" ry="12.5" style="stroke:#2D3436;stroke-width:0.5;" width="205.7637" x="1934.9936" y="1142.2764"/><text fill="#000000" font-family="sans-serif" font-size="12" lengthAdjust="spacing" textLength="94.2773" x="1944.9936" y="1163.415">Afi&#537;eaz&#259; mesaj:</text><rect fill="#000000" height="3.5" width="3.5" x="1953.9936" y="1170.2139"/><text fill="#000000" font-family="sans-serif" font-size="12" lengthAdjust="spacing" textLength="169.7637" x="1960.9936" y="1177.3838">&#8222;Email sau parol&#259; incorect&#259;.</text><text fill="#000000" font-family="sans-serif" font-size="12" lengthAdjust="spacing" textLength="134.6543" x="1944.9936" y="1191.3525">&#206;ncerc&#259;ri r&#259;mase: X"**</text><rect fill="#FFEAA7" height="61.9063" rx="12.5" ry="12.5" style="stroke:#2D3436;stroke-width:0.5;" width="238.7656" x="2190.7572" y="696.6201"/><text fill="#000000" font-family="sans-serif" font-size="12" lengthAdjust="spacing" textLength="142.9453" x="2200.7572" y="717.7588">Afi&#537;eaz&#259; mesaj generic:</text><text fill="#000000" font-family="sans-serif" font-size="12" font-weight="700" lengthAdjust="spacing" textLength="198.1172" x="2200.7572" y="731.7275">&#8222;Email sau parol&#259; incorect&#259;."</text><text fill="#000000" font-family="sans-serif" font-size="12" lengthAdjust="spacing" textLength="218.7656" x="2200.7572" y="745.6963">(f&#259;r&#259; a dezv&#259;lui dac&#259; emailul exist&#259;)</text><ellipse cx="2310.14" cy="803.4951" fill="none" rx="11" ry="11" style="stroke:#222222;stroke-width:1;"/><ellipse cx="2310.14" cy="803.4951" fill="#222222" rx="6" ry="6" style="stroke:#222222;stroke-width:1;"/><rect fill="#FFEAA7" height="47.9375" rx="12.5" ry="12.5" style="stroke:#2D3436;stroke-width:0.5;" width="173.1875" x="2439.5229" y="462.7764"/><text fill="#000000" font-family="sans-serif" font-size="12" lengthAdjust="spacing" textLength="153.1875" x="2449.5229" y="483.915">Afi&#537;eaz&#259; erori de validare</text><text fill="#000000" font-family="sans-serif" font-size="12" lengthAdjust="spacing" textLength="120.2285" x="2449.5229" y="497.8838">(ex: &#8222;Email invalid")</text><line style="stroke:#2D3436;stroke-width:1.5;" x1="1248.4096" x2="1248.4096" y1="55.042" y2="1566.9951"/><rect fill="#FFEAA7" height="47.9375" rx="12.5" ry="12.5" style="stroke:#2D3436;stroke-width:0.5;" width="241.5371" x="3006.025" y="462.7764"/><text fill="#000000" font-family="sans-serif" font-size="12" lengthAdjust="spacing" textLength="221.5371" x="3016.025" y="483.915">Prime&#537;te cerere POST /api/auth/login</text><text fill="#000000" font-family="sans-serif" font-size="12" lengthAdjust="spacing" textLength="88.0195" x="3016.025" y="497.8838">(email, parol&#259;)</text><rect fill="#FFEAA7" height="33.9688" rx="12.5" ry="12.5" style="stroke:#2D3436;stroke-width:0.5;" width="194.0117" x="3029.7877" y="530.7139"/><text fill="#000000" font-family="sans-serif" font-size="12" lengthAdjust="spacing" textLength="174.0117" x="3039.7877" y="551.8525">Caut&#259; utilizatorul dup&#259; email</text><polygon fill="#DFE6E9" points="3080.7606,652.6201,3172.8265,652.6201,3184.8265,664.6201,3172.8265,676.6201,3080.7606,676.6201,3068.7606,664.6201,3080.7606,652.6201" style="stroke:#2D3436;stroke-width:0.5;"/><text fill="#000000" font-family="sans-serif" font-size="11" lengthAdjust="spacing" textLength="92.0659" x="3080.7606" y="668.4282">Utilizator exist&#259;?</text><text fill="#000000" font-family="sans-serif" font-size="11" lengthAdjust="spacing" textLength="23.7939" x="3044.9666" y="662.0259">[Da]</text><text fill="#000000" font-family="sans-serif" font-size="11" lengthAdjust="spacing" textLength="116.1499" x="3184.8265" y="662.0259">[Utilizator inexistent]</text><rect fill="#FFEAA7" height="47.9375" rx="12.5" ry="12.5" style="stroke:#2D3436;stroke-width:0.5;" width="209.4102" x="2622.7104" y="696.6201"/><text fill="#000000" font-family="sans-serif" font-size="12" lengthAdjust="spacing" textLength="189.4102" x="2632.7104" y="717.7588">Verific&#259; dac&#259; contul este blocat</text><text fill="#000000" font-family="sans-serif" font-size="12" lengthAdjust="spacing" textLength="134.3789" x="2632.7104" y="731.7275">(login_attempts &gt;= 5)</text><polygon fill="#DFE6E9" points="2692.9652,778.5264,2761.8656,778.5264,2773.8656,790.5264,2761.8656,802.5264,2692.9652,802.5264,2680.9652,790.5264,2692.9652,778.5264" style="stroke:#2D3436;stroke-width:0.5;"/><text fill="#000000" font-family="sans-serif" font-size="11" lengthAdjust="spacing" textLength="68.9004" x="2692.9652" y="794.3345">Cont blocat?</text><text fill="#000000" font-family="sans-serif" font-size="11" lengthAdjust="spacing" textLength="23.7939" x="2657.1713" y="787.9321">[Da]</text><text fill="#000000" font-family="sans-serif" font-size="11" lengthAdjust="spacing" textLength="23.7832" x="2773.8656" y="787.9321">[Nu]</text><rect fill="#FFEAA7" height="47.9375" rx="12.5" ry="12.5" style="stroke:#2D3436;stroke-width:0.5;" width="167.6797" x="2880.1895" y="822.5264"/><text fill="#000000" font-family="sans-serif" font-size="12" lengthAdjust="spacing" textLength="147.6797" x="2890.1895" y="843.665">Compar&#259; hash-ul parolei</text><text fill="#000000" font-family="sans-serif" font-size="12" lengthAdjust="spacing" textLength="85.8281" x="2890.1895" y="857.6338">(bcrypt.verify)</text><polygon fill="#DFE6E9" points="2921.5655,904.4326,3006.4932,904.4326,3018.4932,916.4326,3006.4932,928.4326,2921.5655,928.4326,2909.5655,916.4326,2921.5655,904.4326" style="stroke:#2D3436;stroke-width:0.5;"/><text fill="#000000" font-family="sans-serif" font-size="11" lengthAdjust="spacing" textLength="84.9277" x="2921.5655" y="920.2407">Parol&#259; corect&#259;?</text><text fill="#000000" font-family="sans-serif" font-size="11" lengthAdjust="spacing" textLength="23.7939" x="2885.7715" y="913.8384">[Da]</text><text fill="#000000" font-family="sans-serif" font-size="11" lengthAdjust="spacing" textLength="84.6162" x="3018.4932" y="913.8384">[Parol&#259; gre&#537;it&#259;]</text><rect fill="#FFEAA7" height="47.9375" rx="12.5" ry="12.5" style="stroke:#2D3436;stroke-width:0.5;" width="225.1719" x="2662.1238" y="948.4326"/><text fill="#000000" font-family="sans-serif" font-size="12" lengthAdjust="spacing" textLength="205.1719" x="2672.1238" y="969.5713">Reseteaz&#259; contor &#238;ncerc&#259;ri e&#537;uate</text><text fill="#000000" font-family="sans-serif" font-size="12" lengthAdjust="spacing" textLength="124.3242" x="2672.1238" y="983.54">(login_attempts = 0)</text><rect fill="#FFEAA7" height="47.9375" rx="12.5" ry="12.5" style="stroke:#2D3436;stroke-width:0.5;" width="198.9219" x="2675.2488" y="1098.2764"/><text fill="#000000" font-family="sans-serif" font-size="12" lengthAdjust="spacing" textLength="129.3398" x="2685.2488" y="1119.415">Genereaz&#259; token JWT</text><text fill="#000000" font-family="sans-serif" font-size="12" lengthAdjust="spacing" textLength="178.9219" x="2685.2488" y="1133.3838">(rol, user_id, expirare 30 min)</text><rect fill="#FFEAA7" height="47.9375" rx="12.5" ry="12.5" style="stroke:#2D3436;stroke-width:0.5;" width="192.6289" x="2678.3953" y="1181.2139"/><text fill="#000000" font-family="sans-serif" font-size="12" lengthAdjust="spacing" textLength="172.6289" x="2688.3953" y="1202.3525">Determin&#259; rolul utilizatorului</text><text fill="#000000" font-family="sans-serif" font-size="12" lengthAdjust="spacing" textLength="152.6309" x="2688.3953" y="1216.3213">(Administrator / Membru)</text><rect fill="#FFEAA7" height="47.9375" rx="12.5" ry="12.5" style="stroke:#2D3436;stroke-width:0.5;" width="152.1699" x="3077.2639" y="948.4326"/><text fill="#000000" font-family="sans-serif" font-size="12" lengthAdjust="spacing" textLength="132.1699" x="3087.2639" y="969.5713">Incrementeaz&#259; contor</text><text fill="#000000" font-family="sans-serif" font-size="12" lengthAdjust="spacing" textLength="127.4355" x="3087.2639" y="983.54">&#238;ncerc&#259;ri e&#537;uate (+1)</text><polygon fill="#DFE6E9" points="3093.1309,1098.2764,3213.5669,1098.2764,3225.5669,1110.2764,3213.5669,1122.2764,3093.1309,1122.2764,3081.1309,1110.2764,3093.1309,1098.2764" style="stroke:#2D3436;stroke-width:0.5;"/><text fill="#000000" font-family="sans-serif" font-size="11" lengthAdjust="spacing" textLength="120.436" x="3093.1309" y="1114.0845">login_attempts &gt;= 5?</text><text fill="#000000" font-family="sans-serif" font-size="11" lengthAdjust="spacing" textLength="23.7939" x="3057.3369" y="1107.6821">[Da]</text><text fill="#000000" font-family="sans-serif" font-size="11" lengthAdjust="spacing" textLength="124.0454" x="3225.5669" y="1107.6821">[Nu, mai are &#238;ncerc&#259;ri]</text><rect fill="#FFEAA7" height="47.9375" rx="12.5" ry="12.5" style="stroke:#2D3436;stroke-width:0.5;" width="126.4824" x="2989.5496" y="1142.2764"/><text fill="#000000" font-family="sans-serif" font-size="12" lengthAdjust="spacing" textLength="102.5039" x="2999.5496" y="1163.415">Blocheaz&#259; contul</text><text fill="#000000" font-family="sans-serif" font-size="12" lengthAdjust="spacing" textLength="106.4824" x="2999.5496" y="1177.3838">(is_locked = true)</text><line style="stroke:#2D3436;stroke-width:1.5;" x1="2616.7104" x2="2616.7104" y1="55.042" y2="1566.9951"/><rect fill="#FFEAA7" height="47.9375" rx="12.5" ry="12.5" style="stroke:#2D3436;stroke-width:0.5;" width="150.084" x="3570.0164" y="584.6826"/><text fill="#000000" font-family="sans-serif" font-size="12" lengthAdjust="spacing" textLength="130.084" x="3580.0164" y="605.8213">SELECT * FROM users</text><text fill="#000000" font-family="sans-serif" font-size="12" lengthAdjust="spacing" textLength="105.3516" x="3580.0164" y="619.79">WHERE email = ?</text><rect fill="#FFEAA7" height="61.9063" rx="12.5" ry="12.5" style="stroke:#2D3436;stroke-width:0.5;" width="134.9609" x="3360.6123" y="1016.3701"/><text fill="#000000" font-family="sans-serif" font-size="12" lengthAdjust="spacing" textLength="110.9648" x="3370.6123" y="1037.5088">UPDATE users SET</text><text fill="#000000" font-family="sans-serif" font-size="12" lengthAdjust="spacing" textLength="114.9609" x="3370.6123" y="1051.4775">login_attempts = 0</text><text fill="#000000" font-family="sans-serif" font-size="12" lengthAdjust="spacing" textLength="83.209" x="3370.6123" y="1065.4463">WHERE id = ?</text><rect fill="#FFEAA7" height="61.9063" rx="12.5" ry="12.5" style="stroke:#2D3436;stroke-width:0.5;" width="242.2871" x="3550.4702" y="1016.3701"/><text fill="#000000" font-family="sans-serif" font-size="12" lengthAdjust="spacing" textLength="110.9648" x="3560.4702" y="1037.5088">UPDATE users SET</text><text fill="#000000" font-family="sans-serif" font-size="12" lengthAdjust="spacing" textLength="222.2871" x="3560.4702" y="1051.4775">login_attempts = login_attempts + 1</text><text fill="#000000" font-family="sans-serif" font-size="12" lengthAdjust="spacing" textLength="83.209" x="3560.4702" y="1065.4463">WHERE id = ?</text><rect fill="#FFEAA7" height="61.9063" rx="12.5" ry="12.5" style="stroke:#2D3436;stroke-width:0.5;" width="130.9648" x="3505.5733" y="1225.2139"/><text fill="#000000" font-family="sans-serif" font-size="12" lengthAdjust="spacing" textLength="110.9648" x="3515.5733" y="1246.3525">UPDATE users SET</text><text fill="#000000" font-family="sans-serif" font-size="12" lengthAdjust="spacing" textLength="97.1191" x="3515.5733" y="1260.3213">is_locked = true</text><text fill="#000000" font-family="sans-serif" font-size="12" lengthAdjust="spacing" textLength="83.209" x="3515.5733" y="1274.29">WHERE id = ?</text><line style="stroke:#2D3436;stroke-width:1.5;" x1="3354.6123" x2="3354.6123" y1="55.042" y2="1566.9951"/><line style="stroke:#2D3436;stroke-width:1.5;" x1="3796.7574" x2="3796.7574" y1="55.042" y2="1566.9951"/><line style="stroke:#636E72;stroke-width:1;" x1="998.558" x2="998.558" y1="100.9951" y2="120.9951"/><polygon fill="#636E72" points="994.558,110.9951,998.558,120.9951,1002.558,110.9951,998.558,114.9951" style="stroke:#636E72;stroke-width:1;"/><line style="stroke:#636E72;stroke-width:1;" x1="998.558" x2="998.558" y1="276.8701" y2="296.8701"/><polygon fill="#636E72" points="994.558,286.8701,998.558,296.8701,1002.558,286.8701,998.558,290.8701" style="stroke:#636E72;stroke-width:1;"/><line style="stroke:#636E72;stroke-width:1;" x1="638.1133" x2="638.1133" y1="1512.9951" y2="1532.9951"/><polygon fill="#636E72" points="634.1133,1522.9951,638.1133,1532.9951,642.1133,1522.9951,638.1133,1526.9951" style="stroke:#636E72;stroke-width:1;"/><line style="stroke:#636E72;stroke-width:1;" x1="807.9941" x2="807.9941" y1="1273.1514" y2="1308.1514"/><polygon fill="#636E72" points="803.9941,1298.1514,807.9941,1308.1514,811.9941,1298.1514,807.9941,1302.1514" style="stroke:#636E72;stroke-width:1;"/><line style="stroke:#636E72;stroke-width:1;" x1="1179.7504" x2="1179.7504" y1="564.6826" y2="584.6826"/><polygon fill="#636E72" points="1175.7504,574.6826,1179.7504,584.6826,1183.7504,574.6826,1179.7504,578.6826" style="stroke:#636E72;stroke-width:1;"/><line style="stroke:#636E72;stroke-width:1;" x1="1344.7699" x2="1344.7699" y1="884.4326" y2="918.4014"/><polygon fill="#636E72" points="1340.7699,908.4014,1344.7699,918.4014,1348.7699,908.4014,1344.7699,912.4014" style="stroke:#636E72;stroke-width:1;"/><line style="stroke:#636E72;stroke-width:1;" x1="1529.3498" x2="1515.3295" y1="1345.1201" y2="1345.1201"/><line style="stroke:#636E72;stroke-width:1;" x1="1515.3295" x2="1515.3295" y1="1345.1201" y2="1367.1201"/><polygon fill="#636E72" points="1511.3295,1357.1201,1515.3295,1367.1201,1519.3295,1357.1201,1515.3295,1361.1201" style="stroke:#636E72;stroke-width:1;"/><line style="stroke:#636E72;stroke-width:1;" x1="1668.0065" x2="1682.0268" y1="1345.1201" y2="1345.1201"/><line style="stroke:#636E72;stroke-width:1;" x1="1682.0268" x2="1682.0268" y1="1345.1201" y2="1367.1201"/><polygon fill="#636E72" points="1678.0268,1357.1201,1682.0268,1367.1201,1686.0268,1357.1201,1682.0268,1361.1201" style="stroke:#636E72;stroke-width:1;"/><line style="stroke:#636E72;stroke-width:1;" x1="1515.3295" x2="1515.3295" y1="1415.0576" y2="1433.0576"/><line style="stroke:#636E72;stroke-width:1;" x1="1515.3295" x2="1586.6781" y1="1433.0576" y2="1433.0576"/><polygon fill="#636E72" points="1576.6781,1429.0576,1586.6781,1433.0576,1576.6781,1437.0576,1580.6781,1433.0576" style="stroke:#636E72;stroke-width:1;"/><line style="stroke:#636E72;stroke-width:1;" x1="1682.0268" x2="1682.0268" y1="1415.0576" y2="1433.0576"/><line style="stroke:#636E72;stroke-width:1;" x1="1682.0268" x2="1610.6781" y1="1433.0576" y2="1433.0576"/><polygon fill="#636E72" points="1620.6781,1429.0576,1610.6781,1433.0576,1620.6781,1437.0576,1616.6781,1433.0576" style="stroke:#636E72;stroke-width:1;"/><line style="stroke:#636E72;stroke-width:1;" x1="1598.6781" x2="1598.6781" y1="1298.1201" y2="1333.1201"/><polygon fill="#636E72" points="1594.6781,1323.1201,1598.6781,1333.1201,1602.6781,1323.1201,1598.6781,1327.1201" style="stroke:#636E72;stroke-width:1;"/><line style="stroke:#636E72;stroke-width:1;" x1="1846.7592" x2="1846.7592" y1="1384.0264" y2="1419.0264"/><polygon fill="#636E72" points="1842.7592,1409.0264,1846.7592,1419.0264,1850.7592,1409.0264,1846.7592,1413.0264" style="stroke:#636E72;stroke-width:1;"/><line style="stroke:#636E72;stroke-width:1;" x1="2310.14" x2="2310.14" y1="758.5264" y2="792.4951"/><polygon fill="#636E72" points="2306.14,782.4951,2310.14,792.4951,2314.14,782.4951,2310.14,786.4951" style="stroke:#636E72;stroke-width:1;"/><line style="stroke:#636E72;stroke-width:1;" x1="2293.6722" x2="2526.1166" y1="430.7764" y2="430.7764"/><line style="stroke:#636E72;stroke-width:1;" x1="2526.1166" x2="2526.1166" y1="430.7764" y2="462.7764"/><polygon fill="#636E72" points="2522.1166,452.7764,2526.1166,462.7764,2530.1166,452.7764,2526.1166,456.7764" style="stroke:#636E72;stroke-width:1;"/><line style="stroke:#636E72;stroke-width:1;" x1="2228.4393" x2="2228.4393" y1="398.7764" y2="418.7764"/><polygon fill="#636E72" points="2224.4393,408.7764,2228.4393,418.7764,2232.4393,408.7764,2228.4393,412.7764" style="stroke:#636E72;stroke-width:1;"/><line style="stroke:#636E72;stroke-width:1;" x1="3126.7935" x2="3126.7935" y1="510.7139" y2="530.7139"/><polygon fill="#636E72" points="3122.7935,520.7139,3126.7935,530.7139,3130.7935,520.7139,3126.7935,524.7139" style="stroke:#636E72;stroke-width:1;"/><line style="stroke:#636E72;stroke-width:1;" x1="2774.7097" x2="2774.7097" y1="1146.2139" y2="1181.2139"/><polygon fill="#636E72" points="2770.7097,1171.2139,2774.7097,1181.2139,2778.7097,1171.2139,2774.7097,1175.2139" style="stroke:#636E72;stroke-width:1;"/><line style="stroke:#636E72;stroke-width:1;" x1="3081.1309" x2="3052.7908" y1="1110.2764" y2="1110.2764"/><line style="stroke:#636E72;stroke-width:1;" x1="3052.7908" x2="3052.7908" y1="1110.2764" y2="1142.2764"/><polygon fill="#636E72" points="3048.7908,1132.2764,3052.7908,1142.2764,3056.7908,1132.2764,3052.7908,1136.2764" style="stroke:#636E72;stroke-width:1;"/><line style="stroke:#636E72;stroke-width:1;" x1="2909.5655" x2="2774.7097" y1="916.4326" y2="916.4326"/><line style="stroke:#636E72;stroke-width:1;" x1="2774.7097" x2="2774.7097" y1="916.4326" y2="948.4326"/><polygon fill="#636E72" points="2770.7097,938.4326,2774.7097,948.4326,2778.7097,938.4326,2774.7097,942.4326" style="stroke:#636E72;stroke-width:1;"/><line style="stroke:#636E72;stroke-width:1;" x1="3018.4932" x2="3153.3489" y1="916.4326" y2="916.4326"/><line style="stroke:#636E72;stroke-width:1;" x1="3153.3489" x2="3153.3489" y1="916.4326" y2="948.4326"/><polygon fill="#636E72" points="3149.3489,938.4326,3153.3489,948.4326,3157.3489,938.4326,3153.3489,942.4326" style="stroke:#636E72;stroke-width:1;"/><line style="stroke:#636E72;stroke-width:1;" x1="2964.0293" x2="2964.0293" y1="870.4639" y2="904.4326"/><polygon fill="#636E72" points="2960.0293,894.4326,2964.0293,904.4326,2968.0293,894.4326,2964.0293,898.4326" style="stroke:#636E72;stroke-width:1;"/><line style="stroke:#636E72;stroke-width:1;" x1="2773.8656" x2="2964.0293" y1="790.5264" y2="790.5264"/><line style="stroke:#636E72;stroke-width:1;" x1="2964.0293" x2="2964.0293" y1="790.5264" y2="822.5264"/><polygon fill="#636E72" points="2960.0293,812.5264,2964.0293,822.5264,2968.0293,812.5264,2964.0293,816.5264" style="stroke:#636E72;stroke-width:1;"/><line style="stroke:#636E72;stroke-width:1;" x1="2727.4154" x2="2727.4154" y1="744.5576" y2="778.5264"/><polygon fill="#636E72" points="2723.4154,768.5264,2727.4154,778.5264,2731.4154,768.5264,2727.4154,772.5264" style="stroke:#636E72;stroke-width:1;"/><line style="stroke:#636E72;stroke-width:1;" x1="3068.7606" x2="2727.4154" y1="664.6201" y2="664.6201"/><line style="stroke:#636E72;stroke-width:1;" x1="2727.4154" x2="2727.4154" y1="664.6201" y2="696.6201"/><polygon fill="#636E72" points="2723.4154,686.6201,2727.4154,696.6201,2731.4154,686.6201,2727.4154,690.6201" style="stroke:#636E72;stroke-width:1;"/><line style="stroke:#636E72;stroke-width:1;" x1="998.558" x2="998.558" y1="154.9639" y2="159.9639"/><line style="stroke:#636E72;stroke-width:1;" x1="998.558" x2="2228.4393" y1="159.9639" y2="159.9639"/><line style="stroke:#636E72;stroke-width:1;" x1="2228.4393" x2="2228.4393" y1="159.9639" y2="174.9639"/><polygon fill="#636E72" points="2224.4393,164.9639,2228.4393,174.9639,2232.4393,164.9639,2228.4393,168.9639" style="stroke:#636E72;stroke-width:1;"/><line style="stroke:#636E72;stroke-width:1;" x1="2228.4393" x2="2228.4393" y1="222.9014" y2="227.9014"/><line style="stroke:#636E72;stroke-width:1;" x1="2228.4393" x2="998.558" y1="227.9014" y2="227.9014"/><line style="stroke:#636E72;stroke-width:1;" x1="998.558" x2="998.558" y1="227.9014" y2="242.9014"/><polygon fill="#636E72" points="994.558,232.9014,998.558,242.9014,1002.558,232.9014,998.558,236.9014" style="stroke:#636E72;stroke-width:1;"/><line style="stroke:#636E72;stroke-width:1;" x1="998.558" x2="998.558" y1="330.8389" y2="335.8389"/><line style="stroke:#636E72;stroke-width:1;" x1="998.558" x2="2228.4393" y1="335.8389" y2="335.8389"/><line style="stroke:#636E72;stroke-width:1;" x1="2228.4393" x2="2228.4393" y1="335.8389" y2="350.8389"/><polygon fill="#636E72" points="2224.4393,340.8389,2228.4393,350.8389,2232.4393,340.8389,2228.4393,344.8389" style="stroke:#636E72;stroke-width:1;"/><line style="stroke:#636E72;stroke-width:1;" x1="3126.7935" x2="3126.7935" y1="564.6826" y2="569.6826"/><line style="stroke:#636E72;stroke-width:1;" x1="3126.7935" x2="3645.0584" y1="569.6826" y2="569.6826"/><line style="stroke:#636E72;stroke-width:1;" x1="3645.0584" x2="3645.0584" y1="569.6826" y2="584.6826"/><polygon fill="#636E72" points="3641.0584,574.6826,3645.0584,584.6826,3649.0584,574.6826,3645.0584,578.6826" style="stroke:#636E72;stroke-width:1;"/><line style="stroke:#636E72;stroke-width:1;" x1="2774.7097" x2="2774.7097" y1="996.3701" y2="1001.3701"/><line style="stroke:#636E72;stroke-width:1;" x1="2774.7097" x2="3428.0928" y1="1001.3701" y2="1001.3701"/><line style="stroke:#636E72;stroke-width:1;" x1="3428.0928" x2="3428.0928" y1="1001.3701" y2="1016.3701"/><polygon fill="#636E72" points="3424.0928,1006.3701,3428.0928,1016.3701,3432.0928,1006.3701,3428.0928,1010.3701" style="stroke:#636E72;stroke-width:1;"/><line style="stroke:#636E72;stroke-width:1;" x1="3428.0928" x2="3428.0928" y1="1078.2764" y2="1083.2764"/><line style="stroke:#636E72;stroke-width:1;" x1="3428.0928" x2="2774.7097" y1="1083.2764" y2="1083.2764"/><line style="stroke:#636E72;stroke-width:1;" x1="2774.7097" x2="2774.7097" y1="1083.2764" y2="1098.2764"/><polygon fill="#636E72" points="2770.7097,1088.2764,2774.7097,1098.2764,2778.7097,1088.2764,2774.7097,1092.2764" style="stroke:#636E72;stroke-width:1;"/><line style="stroke:#636E72;stroke-width:1;" x1="2774.7097" x2="2774.7097" y1="1229.1514" y2="1246.6514"/><line style="stroke:#636E72;stroke-width:1;" x1="2774.7097" x2="1598.6781" y1="1246.6514" y2="1246.6514"/><line style="stroke:#636E72;stroke-width:1;" x1="1598.6781" x2="1598.6781" y1="1246.6514" y2="1264.1514"/><polygon fill="#636E72" points="1594.6781,1254.1514,1598.6781,1264.1514,1602.6781,1254.1514,1598.6781,1258.1514" style="stroke:#636E72;stroke-width:1;"/><line style="stroke:#636E72;stroke-width:1;" x1="1598.6781" x2="1598.6781" y1="1445.0576" y2="1450.0576"/><line style="stroke:#636E72;stroke-width:1;" x1="1598.6781" x2="638.1133" y1="1450.0576" y2="1450.0576"/><line style="stroke:#636E72;stroke-width:1;" x1="638.1133" x2="638.1133" y1="1450.0576" y2="1465.0576"/><polygon fill="#636E72" points="634.1133,1455.0576,638.1133,1465.0576,642.1133,1455.0576,638.1133,1459.0576" style="stroke:#636E72;stroke-width:1;"/><line style="stroke:#636E72;stroke-width:1;" x1="3153.3489" x2="3153.3489" y1="996.3701" y2="1001.3701"/><line style="stroke:#636E72;stroke-width:1;" x1="3153.3489" x2="3671.6138" y1="1001.3701" y2="1001.3701"/><line style="stroke:#636E72;stroke-width:1;" x1="3671.6138" x2="3671.6138" y1="1001.3701" y2="1016.3701"/><polygon fill="#636E72" points="3667.6138,1006.3701,3671.6138,1016.3701,3675.6138,1006.3701,3671.6138,1010.3701" style="stroke:#636E72;stroke-width:1;"/><line style="stroke:#636E72;stroke-width:1;" x1="3052.7908" x2="3052.7908" y1="1190.2139" y2="1207.7139"/><line style="stroke:#636E72;stroke-width:1;" x1="3052.7908" x2="3571.0557" y1="1207.7139" y2="1207.7139"/><line style="stroke:#636E72;stroke-width:1;" x1="3571.0557" x2="3571.0557" y1="1207.7139" y2="1225.2139"/><polygon fill="#636E72" points="3567.0557,1215.2139,3571.0557,1225.2139,3575.0557,1215.2139,3571.0557,1219.2139" style="stroke:#636E72;stroke-width:1;"/><line style="stroke:#636E72;stroke-width:1;" x1="3571.0557" x2="3571.0557" y1="1287.1201" y2="1304.6201"/><line style="stroke:#636E72;stroke-width:1;" x1="3571.0557" x2="1846.7592" y1="1304.6201" y2="1304.6201"/><line style="stroke:#636E72;stroke-width:1;" x1="1846.7592" x2="1846.7592" y1="1304.6201" y2="1322.1201"/><polygon fill="#636E72" points="1842.7592,1312.1201,1846.7592,1322.1201,1850.7592,1312.1201,1846.7592,1316.1201" style="stroke:#636E72;stroke-width:1;"/><line style="stroke:#636E72;stroke-width:1;" x1="2037.8754" x2="2037.8754" y1="1204.1826" y2="1221.6826"/><line style="stroke:#636E72;stroke-width:1;" x1="2037.8754" x2="807.9941" y1="1221.6826" y2="1221.6826"/><line style="stroke:#636E72;stroke-width:1;" x1="807.9941" x2="807.9941" y1="1221.6826" y2="1239.1826"/><polygon fill="#636E72" points="803.9941,1229.1826,807.9941,1239.1826,811.9941,1229.1826,807.9941,1233.1826" style="stroke:#636E72;stroke-width:1;"/><line style="stroke:#636E72;stroke-width:1;" x1="3225.5669" x2="3237.5669" y1="1110.2764" y2="1110.2764"/><line style="stroke:#636E72;stroke-width:1;" x1="3237.5669" x2="3237.5669" y1="1110.2764" y2="1128.2764"/><line style="stroke:#636E72;stroke-width:1;" x1="3237.5669" x2="2037.8754" y1="1128.2764" y2="1128.2764"/><line style="stroke:#636E72;stroke-width:1;" x1="2037.8754" x2="2037.8754" y1="1128.2764" y2="1142.2764"/><polygon fill="#636E72" points="2033.8754,1132.2764,2037.8754,1142.2764,2041.8754,1132.2764,2037.8754,1136.2764" style="stroke:#636E72;stroke-width:1;"/><line style="stroke:#636E72;stroke-width:1;" x1="3671.6138" x2="3671.6138" y1="1078.2764" y2="1083.2764"/><line style="stroke:#636E72;stroke-width:1;" x1="3671.6138" x2="3153.3489" y1="1083.2764" y2="1083.2764"/><line style="stroke:#636E72;stroke-width:1;" x1="3153.3489" x2="3153.3489" y1="1083.2764" y2="1098.2764"/><polygon fill="#636E72" points="3149.3489,1088.2764,3153.3489,1098.2764,3157.3489,1088.2764,3153.3489,1092.2764" style="stroke:#636E72;stroke-width:1;"/><line style="stroke:#636E72;stroke-width:1;" x1="2680.9652" x2="1344.7699" y1="790.5264" y2="790.5264"/><line style="stroke:#636E72;stroke-width:1;" x1="1344.7699" x2="1344.7699" y1="790.5264" y2="822.5264"/><polygon fill="#636E72" points="1340.7699,812.5264,1344.7699,822.5264,1348.7699,812.5264,1344.7699,816.5264" style="stroke:#636E72;stroke-width:1;"/><line style="stroke:#636E72;stroke-width:1;" x1="3184.8265" x2="3196.8265" y1="664.6201" y2="664.6201"/><line style="stroke:#636E72;stroke-width:1;" x1="3196.8265" x2="3196.8265" y1="664.6201" y2="682.6201"/><line style="stroke:#636E72;stroke-width:1;" x1="3196.8265" x2="2310.14" y1="682.6201" y2="682.6201"/><line style="stroke:#636E72;stroke-width:1;" x1="2310.14" x2="2310.14" y1="682.6201" y2="696.6201"/><polygon fill="#636E72" points="2306.14,686.6201,2310.14,696.6201,2314.14,686.6201,2310.14,690.6201" style="stroke:#636E72;stroke-width:1;"/><line style="stroke:#636E72;stroke-width:1;" x1="3645.0584" x2="3645.0584" y1="632.6201" y2="637.6201"/><line style="stroke:#636E72;stroke-width:1;" x1="3645.0584" x2="3126.7935" y1="637.6201" y2="637.6201"/><line style="stroke:#636E72;stroke-width:1;" x1="3126.7935" x2="3126.7935" y1="637.6201" y2="652.6201"/><polygon fill="#636E72" points="3122.7935,642.6201,3126.7935,652.6201,3130.7935,642.6201,3126.7935,646.6201" style="stroke:#636E72;stroke-width:1;"/><line style="stroke:#636E72;stroke-width:1;" x1="2526.1166" x2="2526.1166" y1="510.7139" y2="515.7139"/><line style="stroke:#636E72;stroke-width:1;" x1="2526.1166" x2="1179.7504" y1="515.7139" y2="515.7139"/><line style="stroke:#636E72;stroke-width:1;" x1="1179.7504" x2="1179.7504" y1="515.7139" y2="530.7139"/><polygon fill="#636E72" points="1175.7504,520.7139,1179.7504,530.7139,1183.7504,520.7139,1179.7504,524.7139" style="stroke:#636E72;stroke-width:1;"/><line style="stroke:#636E72;stroke-width:1;" x1="2163.2064" x2="2151.2064" y1="430.7764" y2="430.7764"/><line style="stroke:#636E72;stroke-width:1;" x1="2151.2064" x2="2151.2064" y1="430.7764" y2="448.7764"/><line style="stroke:#636E72;stroke-width:1;" x1="2151.2064" x2="3126.7935" y1="448.7764" y2="448.7764"/><line style="stroke:#636E72;stroke-width:1;" x1="3126.7935" x2="3126.7935" y1="448.7764" y2="462.7764"/><polygon fill="#636E72" points="3122.7935,452.7764,3126.7935,462.7764,3130.7935,452.7764,3126.7935,456.7764" style="stroke:#636E72;stroke-width:1;"/><text fill="#000000" font-family="sans-serif" font-size="18" lengthAdjust="spacing" textLength="81.1846" x="30.7217" y="71.75">Utilizator</text><text fill="#000000" font-family="sans-serif" font-size="18" lengthAdjust="spacing" textLength="119.3906" x="133.3496" y="71.75">Frontend (UI)</text><text fill="#000000" font-family="sans-serif" font-size="18" lengthAdjust="spacing" textLength="125.8506" x="274.1836" y="71.75">Backend (API)</text><text fill="#000000" font-family="sans-serif" font-size="18" lengthAdjust="spacing" textLength="120.8232" x="421.4775" y="71.75">Baza de Date</text><text fill="#000000" font-family="sans-serif" font-size="18" lengthAdjust="spacing" textLength="81.1846" x="860.1237" y="71.75">Utilizator</text><text fill="#000000" font-family="sans-serif" font-size="18" lengthAdjust="spacing" textLength="119.3906" x="1872.8647" y="71.75">Frontend (UI)</text><text fill="#000000" font-family="sans-serif" font-size="18" lengthAdjust="spacing" textLength="125.8506" x="2922.7361" y="71.75">Backend (API)</text><text fill="#000000" font-family="sans-serif" font-size="18" lengthAdjust="spacing" textLength="120.8232" x="3515.2732" y="71.75">Baza de Date</text><?plantuml-src hLR1Rjj64BtpAmRn8PBYsB5Tsua4Dv15CbLRrweiEosgmbYJQsbhSfTOBftOLO00llVKYr6WXtv0Vo8--3lo9PtTfIHAejAagGHOzExEp9itRsRv4FO-u-CyX6Qhrpvfztu4jzryqMqUmCe6l7_xEtIa26YQHH1IQ6QASiNEMK0aHPkkz_tZZLNpisb_jd3riu0efY8AjPhBo42Ic9YmWMANJ155_nLKhUOuwGNZ2K5Z8DRm2dvr0FP9S36G8kDXIqH2mehlUytchjuHCgGoNzrqjxxOsi5LH10B7YwOkRwtupqh72YrRaefNkMBErixtkwcywQ0B7t5ueXmQf6LU7ZZEACLxwd_rDyUmR5Y4Ric2lT7UddVt_RtH-1BmJ7t42h7xQhPyJt_cRSxChcQZMPdlEDwhjVIEzU6KrUpES8WKzyZ9rL4AgVU391SIgxlRY0X0yQDGIJmgO46Cr57UFgStT_Qq-T2nbb4f2qCAHQcpol1kx_Y99Ei3ZGcB5f5vr94TpVLnXoCUfihAS8ieFOatD-oyU461an8Yi7ECYKuHghLth_zSqO43sgrCg0d96AX1Jg64kcy0X8XEesTg3bemEab2pL0TWuLum3zMnlSFVpcUHNKa7Ae_EIIdwiE5dCqm_q8L-eToM9wVuk41rJY5pg7HprO9mbRHuw6wuPQXB102zgsy0H6oYRqQ6wp19VCwKOUSbfK4_78-zPhzQ06VlVm0BAKohJFNtxbTRsSqJrutYX7gnCjw8s-PYa2MCmJevnGgHb7B27HVmFa6-7H53CzqnmfJCeaTqgKed6YKlXo3xQh3Uj0XsgXJNvuBWQOptmLxMfHT35DoI_rFZSwABXR0_qFZW1o_mVhSnB6Z6CkqfAuPaHYlQLA9EQHHYd5yDzbunJB23BnMoB6Cc7q8Kc7Zp5fKpIASIfdWRnArDgb9kTgdAfDjfEhAX2I1ajODUwxs7ygboecWNLuzpT7yI3BaW5gASDABvAx1q-c0KjqaNi_xhZDdcTb0KTUhyyN_OpbmiA9LZv427fzGJbgss1M0a_0ro_HSmKpNZMXJbcuYd9AcDGjjFK4i1xLnjJUnOmbhg4zsY2bHSrdcjbciOIm3WSqFfFPJCQbQj4DeKGmjE0GbcRJDZ6kIpAW1HUwJbsXEsGcNAauyrg53Ck98XFSHeY8LgEBoZWJH8RMqLHk4vrP_9_gpLhDkECXEo-GK9ob4ySd58MGZ_D4CXwmHC-mFaU1wTbdIS_OrArf2sS6yLZ00uaQPAZWecgNAgFD0qbZdCz5HVTvYQIXycZZVrBmtC8ZsFXaIMifb8olvLBOZoOgixCGHSlIKroze3geaXajfhSqmT8KvpqjpMTv7tpSvCmlcEtI4XK7vxnA2XDq5V2U0Ttf1Hz5jVmda9wvl5AIJIve578-JDSGxczJk3YSOvBIElnWNmSASSlwmmoW0DyFyhjCKeERQ6yVIDTqtlppf1zpDWhNAUFcGiLUo9LJHi92-Z3GivK57qK3fgjVPv04NDVQkhwyky76pXCpzx--fUt5da_W_0hCaK-gQ5wsgHJ89p9pcR__6EYBm8km5spqwythEap0Csvs7jXsc2i9Ngyw6UigHD55LCEqt1kC_m00?></g></svg>