<svg xmlns="http://www.w3.org/2000/svg" xmlns:xlink="http://www.w3.org/1999/xlink" contentStyleType="text/css" data-diagram-type="ACTIVITY" height="2099px" preserveAspectRatio="none" style="width:2078px;height:2099px;background:#FFFFFF;" version="1.1" viewBox="0 0 2078 2099" width="2078px" zoomAndPan="magnify"><?plantuml 1.2026.4beta2?><defs/><g><g class="title" data-source-line="5"><text fill="#000000" font-family="sans-serif" font-size="14" font-weight="700" lengthAdjust="spacing" textLength="570.7119" x="752.8977" y="32.9951">Diagrama de Activitate #4 &#8212; Expirare Abonament &#537;i Restric&#539;ionare Cont</text></g><rect fill="none" height="20.9531" style="stroke:none;stroke-width:1;" width="2031.5073" x="20" y="55.042"/><rect fill="#F5EEF8" height="2023.6909" style="stroke:#F5EEF8;stroke-width:1;" width="261.6748" x="20" y="55.042"/><line style="stroke:#000000;stroke-width:1.5;" x1="20" x2="20" y1="55.042" y2="2078.7329"/><rect fill="#FEF9E7" height="2023.6909" style="stroke:#FEF9E7;stroke-width:1;" width="241.249" x="281.6748" y="55.042"/><line style="stroke:#000000;stroke-width:1.5;" x1="281.6748" x2="281.6748" y1="55.042" y2="2078.7329"/><rect fill="#FDEDEC" height="2023.6909" style="stroke:#FDEDEC;stroke-width:1;" width="142.2666" x="522.9238" y="55.042"/><line style="stroke:#000000;stroke-width:1.5;" x1="522.9238" x2="522.9238" y1="55.042" y2="2078.7329"/><rect fill="#FEF9E7" height="2023.6909" style="stroke:#FEF9E7;stroke-width:1;" width="148.9639" x="665.1904" y="55.042"/><line style="stroke:#000000;stroke-width:1.5;" x1="665.1904" x2="665.1904" y1="55.042" y2="2078.7329"/><ellipse cx="940.27" cy="90.9951" fill="#222222" rx="10" ry="10" style="stroke:#222222;stroke-width:1;"/><rect fill="#FFEAA7" height="47.9375" rx="12.5" ry="12.5" style="stroke:#2D3436;stroke-width:0.5;" width="166.3672" x="857.0864" y="120.9951"/><text fill="#000000" font-family="sans-serif" font-size="12" lengthAdjust="spacing" textLength="146.3672" x="867.0864" y="142.1338">Cron Job se declan&#537;eaz&#259;</text><text fill="#000000" font-family="sans-serif" font-size="12" font-weight="700" lengthAdjust="spacing" textLength="93.7441" x="867.0864" y="156.1025">zilnic la 00:05</text><line style="stroke:#000000;stroke-width:1.5;" x1="814.1543" x2="814.1543" y1="55.042" y2="2078.7329"/><rect fill="#FFEAA7" height="47.9375" rx="12.5" ry="12.5" style="stroke:#2D3436;stroke-width:0.5;" width="197.6094" x="1187.8508" y="188.9326"/><text fill="#000000" font-family="sans-serif" font-size="12" lengthAdjust="spacing" textLength="177.6094" x="1197.8508" y="210.0713">Ini&#539;iaz&#259; procesul de verificare</text><text fill="#000000" font-family="sans-serif" font-size="12" lengthAdjust="spacing" textLength="129.6621" x="1197.8508" y="224.04">abonamente expirate</text><rect fill="#FFEAA7" height="47.9375" rx="12.5" ry="12.5" style="stroke:#2D3436;stroke-width:0.5;" width="193.8594" x="1189.7258" y="256.8701"/><text fill="#000000" font-family="sans-serif" font-size="12" lengthAdjust="spacing" textLength="162.082" x="1199.7258" y="278.0088">Interogeaz&#259; abonamentele</text><text fill="#000000" font-family="sans-serif" font-size="12" lengthAdjust="spacing" textLength="173.8594" x="1199.7258" y="291.9775">active cu data expirare &lt; azi</text><rect fill="#FFEAA7" height="47.9375" rx="12.5" ry="12.5" style="stroke:#2D3436;stroke-width:0.5;" width="167.7793" x="1202.7659" y="476.5576"/><text fill="#000000" font-family="sans-serif" font-size="12" lengthAdjust="spacing" textLength="147.7793" x="1212.7659" y="497.6963">Prime&#537;te lista membrilor</text><text fill="#000000" font-family="sans-serif" font-size="12" lengthAdjust="spacing" textLength="147.6797" x="1212.7659" y="511.665">cu abonamente expirate</text><rect fill="#FFEAA7" height="47.9375" rx="12.5" ry="12.5" style="stroke:#2D3436;stroke-width:0.5;" width="201.6348" x="1185.8381" y="592.8975"/><text fill="#000000" font-family="sans-serif" font-size="12" lengthAdjust="spacing" textLength="181.6348" x="1195.8381" y="614.0361">Logheaz&#259;: &#8222;Niciun abonament</text><text fill="#000000" font-family="sans-serif" font-size="12" lengthAdjust="spacing" textLength="84.8379" x="1195.8381" y="628.0049">expirat g&#259;sit."</text><ellipse cx="1286.6555" cy="673.3662" fill="none" rx="11" ry="11" style="stroke:#222222;stroke-width:1;"/><ellipse cx="1286.6555" cy="673.3662" fill="#222222" rx="6" ry="6" style="stroke:#222222;stroke-width:1;"/><polygon fill="#DFE6E9" points="1253.8784,544.4951,1319.4326,544.4951,1331.4326,556.4951,1319.4326,568.4951,1253.8784,568.4951,1241.8784,556.4951,1253.8784,544.4951" style="stroke:#2D3436;stroke-width:0.5;"/><text fill="#000000" font-family="sans-serif" font-size="11" lengthAdjust="spacing" textLength="122.9712" x="1290.6555" y="578.7056">[Da &#8212; Nimeni expirat]</text><text fill="#000000" font-family="sans-serif" font-size="11" lengthAdjust="spacing" textLength="65.5542" x="1253.8784" y="560.3032">Lista goal&#259;?</text><text fill="#000000" font-family="sans-serif" font-size="11" lengthAdjust="spacing" textLength="197.4307" x="1331.4326" y="553.9009">[Nu &#8212; Exist&#259; abonamente expirate]</text><rect fill="#FFEAA7" height="47.9375" rx="12.5" ry="12.5" style="stroke:#2D3436;stroke-width:0.5;" width="207.6465" x="1182.8323" y="726.3662"/><text fill="#000000" font-family="sans-serif" font-size="12" lengthAdjust="spacing" textLength="163.6465" x="1192.8323" y="747.5049">&#206;ncepe iterarea prin fiecare</text><text fill="#000000" font-family="sans-serif" font-size="12" lengthAdjust="spacing" textLength="187.6465" x="1192.8323" y="761.4736">membru cu abonament expirat</text><rect fill="#FFEAA7" height="47.9375" rx="12.5" ry="12.5" style="stroke:#2D3436;stroke-width:0.5;" width="194.7852" x="1189.2629" y="850.0142"/><text fill="#000000" font-family="sans-serif" font-size="12" lengthAdjust="spacing" textLength="130.9512" x="1199.2629" y="871.1528">Preia membrul curent</text><text fill="#000000" font-family="sans-serif" font-size="12" lengthAdjust="spacing" textLength="174.7852" x="1199.2629" y="885.1216">(member_id, subscription_id)</text><rect fill="#FFEAA7" height="33.9688" rx="12.5" ry="12.5" style="stroke:#2D3436;stroke-width:0.5;" width="258.9805" x="1157.1653" y="917.9517"/><line style="stroke:#2D3436;stroke-width:1;" x1="1157.1653" x2="1167.1653" y1="934.936" y2="934.936"/><line style="stroke:#2D3436;stroke-width:1;" x1="1157.1653" x2="1167.1653" y1="936.936" y2="936.936"/><text fill="#000000" font-family="sans-serif" font-size="12" lengthAdjust="spacing" textLength="231.3516" x="1170.9797" y="938.5903">Pasul 1: Actualizare status abonament</text><line style="stroke:#2D3436;stroke-width:1;" x1="1406.1458" x2="1416.1458" y1="934.936" y2="934.936"/><line style="stroke:#2D3436;stroke-width:1;" x1="1406.1458" x2="1416.1458" y1="936.936" y2="936.936"/><rect fill="#FFEAA7" height="33.9688" rx="12.5" ry="12.5" style="stroke:#2D3436;stroke-width:0.5;" width="242.6738" x="1165.3186" y="1053.8267"/><line style="stroke:#2D3436;stroke-width:1;" x1="1165.3186" x2="1175.3186" y1="1070.811" y2="1070.811"/><line style="stroke:#2D3436;stroke-width:1;" x1="1165.3186" x2="1175.3186" y1="1072.811" y2="1072.811"/><text fill="#000000" font-family="sans-serif" font-size="12" lengthAdjust="spacing" textLength="215.0449" x="1179.1331" y="1074.4653">Pasul 2: Mutare &#238;n restricted_clients</text><line style="stroke:#2D3436;stroke-width:1;" x1="1397.9924" x2="1407.9924" y1="1070.811" y2="1070.811"/><line style="stroke:#2D3436;stroke-width:1;" x1="1397.9924" x2="1407.9924" y1="1072.811" y2="1072.811"/><rect fill="#FFEAA7" height="33.9688" rx="12.5" ry="12.5" style="stroke:#2D3436;stroke-width:0.5;" width="241.2441" x="1166.0334" y="1217.6392"/><line style="stroke:#2D3436;stroke-width:1;" x1="1166.0334" x2="1176.0334" y1="1234.6235" y2="1234.6235"/><line style="stroke:#2D3436;stroke-width:1;" x1="1166.0334" x2="1176.0334" y1="1236.6235" y2="1236.6235"/><text fill="#000000" font-family="sans-serif" font-size="12" lengthAdjust="spacing" textLength="213.6152" x="1179.8479" y="1238.2778">Pasul 3: Actualizare status membru</text><line style="stroke:#2D3436;stroke-width:1;" x1="1397.2776" x2="1407.2776" y1="1234.6235" y2="1234.6235"/><line style="stroke:#2D3436;stroke-width:1;" x1="1397.2776" x2="1407.2776" y1="1236.6235" y2="1236.6235"/><rect fill="#FFEAA7" height="33.9688" rx="12.5" ry="12.5" style="stroke:#2D3436;stroke-width:0.5;" width="231.9102" x="1170.7004" y="1353.5142"/><line style="stroke:#2D3436;stroke-width:1;" x1="1170.7004" x2="1180.7004" y1="1370.4985" y2="1370.4985"/><line style="stroke:#2D3436;stroke-width:1;" x1="1170.7004" x2="1180.7004" y1="1372.4985" y2="1372.4985"/><text fill="#000000" font-family="sans-serif" font-size="12" lengthAdjust="spacing" textLength="204.2813" x="1184.5149" y="1374.1528">Pasul 4: Anulare rezerv&#259;ri viitoare</text><line style="stroke:#2D3436;stroke-width:1;" x1="1392.6106" x2="1402.6106" y1="1370.4985" y2="1370.4985"/><line style="stroke:#2D3436;stroke-width:1;" x1="1392.6106" x2="1402.6106" y1="1372.4985" y2="1372.4985"/><rect fill="#FFEAA7" height="33.9688" rx="12.5" ry="12.5" style="stroke:#2D3436;stroke-width:0.5;" width="194.3691" x="1189.4709" y="1559.2329"/><line style="stroke:#2D3436;stroke-width:1;" x1="1189.4709" x2="1199.4709" y1="1576.2173" y2="1576.2173"/><line style="stroke:#2D3436;stroke-width:1;" x1="1189.4709" x2="1199.4709" y1="1578.2173" y2="1578.2173"/><text fill="#000000" font-family="sans-serif" font-size="12" lengthAdjust="spacing" textLength="166.7402" x="1203.2854" y="1579.8716">Pasul 5: Trimitere notificare</text><line style="stroke:#2D3436;stroke-width:1;" x1="1373.8401" x2="1383.8401" y1="1576.2173" y2="1576.2173"/><line style="stroke:#2D3436;stroke-width:1;" x1="1373.8401" x2="1383.8401" y1="1578.2173" y2="1578.2173"/><rect fill="#FFEAA7" height="61.9063" rx="12.5" ry="12.5" style="stroke:#2D3436;stroke-width:0.5;" width="176.4082" x="1198.4514" y="1750.9829"/><text fill="#000000" font-family="sans-serif" font-size="12" lengthAdjust="spacing" textLength="117.4336" x="1208.4514" y="1772.1216">Logheaz&#259; ac&#539;iunea:</text><rect fill="#000000" height="3.5" width="3.5" x="1217.4514" y="1778.9204"/><text fill="#000000" font-family="sans-serif" font-size="12" lengthAdjust="spacing" textLength="140.4082" x="1224.4514" y="1786.0903">&#8222;Membrul #ID mutat &#238;n</text><text fill="#000000" font-family="sans-serif" font-size="12" lengthAdjust="spacing" textLength="120.5742" x="1208.4514" y="1800.0591">restricted_clients"**</text><polygon fill="#DFE6E9" points="1198.3682,794.3037,1374.9429,794.3037,1386.9429,806.3037,1374.9429,818.3037,1198.3682,818.3037,1186.3682,806.3037,1198.3682,794.3037" style="stroke:#2D3436;stroke-width:0.5;"/><text fill="#000000" font-family="sans-serif" font-size="11" lengthAdjust="spacing" textLength="23.7939" x="1290.6555" y="828.5142">[Da]</text><text fill="#000000" font-family="sans-serif" font-size="11" lengthAdjust="spacing" textLength="176.5747" x="1198.3682" y="810.1118">Mai exist&#259; membri de procesat?</text><text fill="#000000" font-family="sans-serif" font-size="11" lengthAdjust="spacing" textLength="116.9824" x="1069.3857" y="803.7095">[Nu &#8212; To&#539;i procesa&#539;i]</text><rect fill="#FFEAA7" height="33.9688" rx="12.5" ry="12.5" style="stroke:#2D3436;stroke-width:0.5;" width="144.6113" x="1214.3499" y="1854.8892"/><line style="stroke:#2D3436;stroke-width:1;" x1="1214.3499" x2="1224.3499" y1="1871.8735" y2="1871.8735"/><line style="stroke:#2D3436;stroke-width:1;" x1="1214.3499" x2="1224.3499" y1="1873.8735" y2="1873.8735"/><text fill="#000000" font-family="sans-serif" font-size="12" lengthAdjust="spacing" textLength="116.9824" x="1228.1643" y="1875.5278">Rezumat procesare</text><line style="stroke:#2D3436;stroke-width:1;" x1="1348.9612" x2="1358.9612" y1="1871.8735" y2="1871.8735"/><line style="stroke:#2D3436;stroke-width:1;" x1="1348.9612" x2="1358.9612" y1="1873.8735" y2="1873.8735"/><rect fill="#555555" height="6" rx="2.5" ry="2.5" style="stroke:#555555;stroke-width:1;" width="390.7656" x="1091.2727" y="1908.8579"/><rect fill="#FFEAA7" height="75.875" rx="12.5" ry="12.5" style="stroke:#2D3436;stroke-width:0.5;" width="168.4629" x="1105.2727" y="1934.8579"/><text fill="#000000" font-family="sans-serif" font-size="12" lengthAdjust="spacing" textLength="142.9863" x="1115.2727" y="1955.9966">Logheaz&#259; raportul final:</text><rect fill="#000000" height="3.5" width="3.5" x="1124.2727" y="1962.7954"/><text fill="#000000" font-family="sans-serif" font-size="12" lengthAdjust="spacing" textLength="132.4629" x="1131.2727" y="1969.9653">&#8222;Procesa&#539;i: N membri.</text><text fill="#000000" font-family="sans-serif" font-size="12" lengthAdjust="spacing" textLength="104.8418" x="1115.2727" y="1983.9341">Restruc&#539;iona&#539;i: N.</text><text fill="#000000" font-family="sans-serif" font-size="12" lengthAdjust="spacing" textLength="145.7578" x="1115.2727" y="1997.9028">Rezerv&#259;ri anulate: M."**</text><rect fill="#FFEAA7" height="47.9375" rx="12.5" ry="12.5" style="stroke:#2D3436;stroke-width:0.5;" width="166.3027" x="1301.7356" y="1948.8267"/><text fill="#000000" font-family="sans-serif" font-size="12" lengthAdjust="spacing" textLength="139.5586" x="1311.7356" y="1969.9653">Trimite raport sumar la</text><text fill="#000000" font-family="sans-serif" font-size="12" lengthAdjust="spacing" textLength="146.3027" x="1311.7356" y="1983.9341">administratori (op&#539;ional)</text><rect fill="#555555" height="6" rx="2.5" ry="2.5" style="stroke:#555555;stroke-width:1;" width="390.7656" x="1091.2727" y="2030.7329"/><ellipse cx="1286.6555" cy="2067.7329" fill="none" rx="11" ry="11" style="stroke:#222222;stroke-width:1;"/><ellipse cx="1286.6555" cy="2067.7329" fill="#222222" rx="6" ry="6" style="stroke:#222222;stroke-width:1;"/><line style="stroke:#000000;stroke-width:1.5;" x1="1064.3857" x2="1064.3857" y1="55.042" y2="2078.7329"/><rect fill="#FFEAA7" height="131.75" rx="12.5" ry="12.5" style="stroke:#2D3436;stroke-width:0.5;" width="269.668" x="1539.8633" y="324.8076"/><text fill="#000000" font-family="sans-serif" font-size="12" lengthAdjust="spacing" textLength="159.1641" x="1549.8633" y="345.9463">SELECT s.id, s.member_id,</text><text fill="#000000" font-family="sans-serif" font-size="12" lengthAdjust="spacing" textLength="167.6074" x="1549.8633" y="359.915">m.first_name, m.last_name,</text><text fill="#000000" font-family="sans-serif" font-size="12" lengthAdjust="spacing" textLength="44.5137" x="1549.8633" y="373.8838">u.email</text><text fill="#000000" font-family="sans-serif" font-size="12" lengthAdjust="spacing" textLength="128.3672" x="1549.8633" y="387.8525">FROM subscriptions s</text><text fill="#000000" font-family="sans-serif" font-size="12" lengthAdjust="spacing" textLength="249.668" x="1549.8633" y="401.8213">JOIN members m ON s.member_id = m.id</text><text fill="#000000" font-family="sans-serif" font-size="12" lengthAdjust="spacing" textLength="197.8945" x="1549.8633" y="415.79">JOIN users u ON m.user_id = u.id</text><text fill="#000000" font-family="sans-serif" font-size="12" lengthAdjust="spacing" textLength="155.9004" x="1549.8633" y="429.7588">WHERE s.status = 'active'</text><text fill="#000000" font-family="sans-serif" font-size="12" lengthAdjust="spacing" textLength="209.7422" x="1549.8633" y="443.7275">AND s.end_date &lt; CURRENT_DATE</text><rect fill="#FFEAA7" height="61.9063" rx="12.5" ry="12.5" style="stroke:#2D3436;stroke-width:0.5;" width="177.9863" x="1585.7041" y="971.9204"/><text fill="#000000" font-family="sans-serif" font-size="12" lengthAdjust="spacing" textLength="157.9863" x="1595.7041" y="993.0591">UPDATE subscriptions SET</text><text fill="#000000" font-family="sans-serif" font-size="12" lengthAdjust="spacing" textLength="106.5234" x="1595.7041" y="1007.0278">status = 'expired'</text><text fill="#000000" font-family="sans-serif" font-size="12" lengthAdjust="spacing" textLength="83.209" x="1595.7041" y="1020.9966">WHERE id = ?</text><rect fill="#FFEAA7" height="89.8438" rx="12.5" ry="12.5" style="stroke:#2D3436;stroke-width:0.5;" width="203.3574" x="1573.0186" y="1107.7954"/><text fill="#000000" font-family="sans-serif" font-size="12" lengthAdjust="spacing" textLength="183.3574" x="1583.0186" y="1128.9341">INSERT INTO restricted_clients</text><text fill="#000000" font-family="sans-serif" font-size="12" lengthAdjust="spacing" textLength="173.918" x="1583.0186" y="1142.9028">(member_id, subscription_id,</text><text fill="#000000" font-family="sans-serif" font-size="12" lengthAdjust="spacing" textLength="129.082" x="1583.0186" y="1156.8716">restricted_at, reason)</text><text fill="#000000" font-family="sans-serif" font-size="12" lengthAdjust="spacing" textLength="127.043" x="1583.0186" y="1170.8403">VALUES (?, ?, NOW(),</text><text fill="#000000" font-family="sans-serif" font-size="12" lengthAdjust="spacing" textLength="135.8438" x="1583.0186" y="1184.8091">'subscription_expired')</text><rect fill="#FFEAA7" height="61.9063" rx="12.5" ry="12.5" style="stroke:#2D3436;stroke-width:0.5;" width="218.1934" x="1565.6006" y="1271.6079"/><text fill="#000000" font-family="sans-serif" font-size="12" lengthAdjust="spacing" textLength="135.4863" x="1575.6006" y="1292.7466">UPDATE members SET</text><text fill="#000000" font-family="sans-serif" font-size="12" lengthAdjust="spacing" textLength="198.1934" x="1575.6006" y="1306.7153">subscription_status = 'restricted'</text><text fill="#000000" font-family="sans-serif" font-size="12" lengthAdjust="spacing" textLength="83.209" x="1575.6006" y="1320.6841">WHERE id = ?</text><rect fill="#FFEAA7" height="131.75" rx="12.5" ry="12.5" style="stroke:#2D3436;stroke-width:0.5;" width="194.2285" x="1577.583" y="1407.4829"/><text fill="#000000" font-family="sans-serif" font-size="12" lengthAdjust="spacing" textLength="153.1172" x="1587.583" y="1428.6216">UPDATE reservations SET</text><text fill="#000000" font-family="sans-serif" font-size="12" lengthAdjust="spacing" textLength="169.7285" x="1587.583" y="1442.5903">status = 'cancelled_expired'</text><text fill="#000000" font-family="sans-serif" font-size="12" lengthAdjust="spacing" textLength="139.9043" x="1587.583" y="1456.5591">WHERE member_id = ?</text><text fill="#000000" font-family="sans-serif" font-size="12" lengthAdjust="spacing" textLength="101.8066" x="1587.583" y="1470.5278">AND class_id IN (</text><text fill="#000000" font-family="sans-serif" font-size="12" lengthAdjust="spacing" textLength="146.0332" x="1595.2119" y="1484.4966">SELECT id FROM classes</text><text fill="#000000" font-family="sans-serif" font-size="12" lengthAdjust="spacing" textLength="166.5996" x="1595.2119" y="1498.4653">WHERE start_time &gt; NOW()</text><text fill="#000000" font-family="sans-serif" font-size="12" lengthAdjust="spacing" textLength="4.6816" x="1587.583" y="1512.4341">)</text><text fill="#000000" font-family="sans-serif" font-size="12" lengthAdjust="spacing" textLength="152.1211" x="1587.583" y="1526.4028">AND status = 'confirmed'</text><line style="stroke:#000000;stroke-width:1.5;" x1="1533.8633" x2="1533.8633" y1="55.042" y2="2078.7329"/><rect fill="#FFEAA7" height="117.7813" rx="12.5" ry="12.5" style="stroke:#2D3436;stroke-width:0.5;" width="226.1152" x="1819.5313" y="1613.2017"/><text fill="#000000" font-family="sans-serif" font-size="12" lengthAdjust="spacing" textLength="173.1797" x="1829.5313" y="1634.3403">Trimite email c&#259;tre membru:</text><text fill="#000000" font-family="sans-serif" font-size="12" font-weight="700" lengthAdjust="spacing" textLength="206.1152" x="1829.5313" y="1648.3091">&#8222;Abonamentul dvs. a expirat."</text><text fill="#000000" font-family="sans-serif" font-size="12" lengthAdjust="spacing" textLength="3.8145" x="1829.5313" y="1662.2778">&#160;</text><text fill="#000000" font-family="sans-serif" font-size="12" lengthAdjust="spacing" textLength="55.3242" x="1829.5313" y="1676.2466">Con&#539;inut:</text><text fill="#000000" font-family="sans-serif" font-size="12" lengthAdjust="spacing" textLength="92.6836" x="1829.5313" y="1690.2153">&#8226; Data expir&#259;rii</text><text fill="#000000" font-family="sans-serif" font-size="12" lengthAdjust="spacing" textLength="127.8223" x="1829.5313" y="1704.1841">&#8226; Rezerv&#259;rile anulate</text><text fill="#000000" font-family="sans-serif" font-size="12" lengthAdjust="spacing" textLength="165.6035" x="1829.5313" y="1718.1528">&#8226; Link re&#238;nnoire abonament</text><line style="stroke:#000000;stroke-width:1.5;" x1="1813.5313" x2="1813.5313" y1="55.042" y2="2078.7329"/><line style="stroke:#000000;stroke-width:1.5;" x1="2049.6465" x2="2049.6465" y1="55.042" y2="2078.7329"/><line style="stroke:#636E72;stroke-width:1;" x1="940.27" x2="940.27" y1="100.9951" y2="120.9951"/><polygon fill="#636E72" points="936.27,110.9951,940.27,120.9951,944.27,110.9951,940.27,114.9951" style="stroke:#636E72;stroke-width:1;"/><line style="stroke:#636E72;stroke-width:1;" x1="1286.6555" x2="1286.6555" y1="236.8701" y2="256.8701"/><polygon fill="#636E72" points="1282.6555,246.8701,1286.6555,256.8701,1290.6555,246.8701,1286.6555,250.8701" style="stroke:#636E72;stroke-width:1;"/><line style="stroke:#636E72;stroke-width:1;" x1="1286.6555" x2="1286.6555" y1="640.835" y2="662.3662"/><polygon fill="#636E72" points="1282.6555,652.3662,1286.6555,662.3662,1290.6555,652.3662,1286.6555,656.3662" style="stroke:#636E72;stroke-width:1;"/><line style="stroke:#636E72;stroke-width:1;" x1="1286.6555" x2="1286.6555" y1="568.4951" y2="592.8975"/><polygon fill="#636E72" points="1282.6555,582.8975,1286.6555,592.8975,1290.6555,582.8975,1286.6555,586.8975" style="stroke:#636E72;stroke-width:1;"/><line style="stroke:#636E72;stroke-width:1;" x1="1331.4326" x2="1397.4729" y1="556.4951" y2="556.4951"/><polygon fill="#636E72" points="1393.4729,632.3662,1397.4729,642.3662,1401.4729,632.3662,1397.4729,636.3662" style="stroke:#636E72;stroke-width:1;"/><line style="stroke:#636E72;stroke-width:1;" x1="1397.4729" x2="1397.4729" y1="556.4951" y2="706.3662"/><line style="stroke:#636E72;stroke-width:1;" x1="1397.4729" x2="1286.6555" y1="706.3662" y2="706.3662"/><line style="stroke:#636E72;stroke-width:1;" x1="1286.6555" x2="1286.6555" y1="706.3662" y2="726.3662"/><polygon fill="#636E72" points="1282.6555,716.3662,1286.6555,726.3662,1290.6555,716.3662,1286.6555,720.3662" style="stroke:#636E72;stroke-width:1;"/><line style="stroke:#636E72;stroke-width:1;" x1="1286.6555" x2="1286.6555" y1="524.4951" y2="544.4951"/><polygon fill="#636E72" points="1282.6555,534.4951,1286.6555,544.4951,1290.6555,534.4951,1286.6555,538.4951" style="stroke:#636E72;stroke-width:1;"/><line style="stroke:#636E72;stroke-width:1;" x1="1286.6555" x2="1286.6555" y1="897.9517" y2="917.9517"/><polygon fill="#636E72" points="1282.6555,907.9517,1286.6555,917.9517,1290.6555,907.9517,1286.6555,911.9517" style="stroke:#636E72;stroke-width:1;"/><line style="stroke:#636E72;stroke-width:1;" x1="1286.6555" x2="1286.6555" y1="818.3037" y2="850.0142"/><polygon fill="#636E72" points="1282.6555,840.0142,1286.6555,850.0142,1290.6555,840.0142,1286.6555,844.0142" style="stroke:#636E72;stroke-width:1;"/><line style="stroke:#636E72;stroke-width:1;" x1="1286.6555" x2="1286.6555" y1="1812.8892" y2="1822.8892"/><line style="stroke:#636E72;stroke-width:1;" x1="1286.6555" x2="1428.1458" y1="1822.8892" y2="1822.8892"/><polygon fill="#636E72" points="1424.1458,1315.5493,1428.1458,1305.5493,1432.1458,1315.5493,1428.1458,1311.5493" style="stroke:#636E72;stroke-width:1;"/><line style="stroke:#636E72;stroke-width:1;" x1="1428.1458" x2="1428.1458" y1="806.3037" y2="1822.8892"/><line style="stroke:#636E72;stroke-width:1;" x1="1428.1458" x2="1386.9429" y1="806.3037" y2="806.3037"/><polygon fill="#636E72" points="1396.9429,802.3037,1386.9429,806.3037,1396.9429,810.3037,1392.9429,806.3037" style="stroke:#636E72;stroke-width:1;"/><line style="stroke:#636E72;stroke-width:1;" x1="1186.3682" x2="1145.1653" y1="806.3037" y2="806.3037"/><polygon fill="#636E72" points="1141.1653,1301.5493,1145.1653,1311.5493,1149.1653,1301.5493,1145.1653,1305.5493" style="stroke:#636E72;stroke-width:1;"/><line style="stroke:#636E72;stroke-width:1;" x1="1145.1653" x2="1145.1653" y1="806.3037" y2="1834.8892"/><line style="stroke:#636E72;stroke-width:1;" x1="1145.1653" x2="1286.6555" y1="1834.8892" y2="1834.8892"/><line style="stroke:#636E72;stroke-width:1;" x1="1286.6555" x2="1286.6555" y1="1834.8892" y2="1854.8892"/><polygon fill="#636E72" points="1282.6555,1844.8892,1286.6555,1854.8892,1290.6555,1844.8892,1286.6555,1848.8892" style="stroke:#636E72;stroke-width:1;"/><line style="stroke:#636E72;stroke-width:1;" x1="1286.6555" x2="1286.6555" y1="774.3037" y2="794.3037"/><polygon fill="#636E72" points="1282.6555,784.3037,1286.6555,794.3037,1290.6555,784.3037,1286.6555,788.3037" style="stroke:#636E72;stroke-width:1;"/><line style="stroke:#636E72;stroke-width:1;" x1="1189.5042" x2="1189.5042" y1="1914.8579" y2="1934.8579"/><polygon fill="#636E72" points="1185.5042,1924.8579,1189.5042,1934.8579,1193.5042,1924.8579,1189.5042,1928.8579" style="stroke:#636E72;stroke-width:1;"/><line style="stroke:#636E72;stroke-width:1;" x1="1384.887" x2="1384.887" y1="1914.8579" y2="1948.8267"/><polygon fill="#636E72" points="1380.887,1938.8267,1384.887,1948.8267,1388.887,1938.8267,1384.887,1942.8267" style="stroke:#636E72;stroke-width:1;"/><line style="stroke:#636E72;stroke-width:1;" x1="1189.5042" x2="1189.5042" y1="2010.7329" y2="2030.7329"/><polygon fill="#636E72" points="1185.5042,2020.7329,1189.5042,2030.7329,1193.5042,2020.7329,1189.5042,2024.7329" style="stroke:#636E72;stroke-width:1;"/><line style="stroke:#636E72;stroke-width:1;" x1="1384.887" x2="1384.887" y1="1996.7642" y2="2030.7329"/><polygon fill="#636E72" points="1380.887,2020.7329,1384.887,2030.7329,1388.887,2020.7329,1384.887,2024.7329" style="stroke:#636E72;stroke-width:1;"/><line style="stroke:#636E72;stroke-width:1;" x1="1286.6555" x2="1286.6555" y1="1888.8579" y2="1908.8579"/><polygon fill="#636E72" points="1282.6555,1898.8579,1286.6555,1908.8579,1290.6555,1898.8579,1286.6555,1902.8579" style="stroke:#636E72;stroke-width:1;"/><line style="stroke:#636E72;stroke-width:1;" x1="1286.6555" x2="1286.6555" y1="2036.7329" y2="2056.7329"/><polygon fill="#636E72" points="1282.6555,2046.7329,1286.6555,2056.7329,1290.6555,2046.7329,1286.6555,2050.7329" style="stroke:#636E72;stroke-width:1;"/><line style="stroke:#636E72;stroke-width:1;" x1="940.27" x2="940.27" y1="168.9326" y2="173.9326"/><line style="stroke:#636E72;stroke-width:1;" x1="940.27" x2="1286.6555" y1="173.9326" y2="173.9326"/><line style="stroke:#636E72;stroke-width:1;" x1="1286.6555" x2="1286.6555" y1="173.9326" y2="188.9326"/><polygon fill="#636E72" points="1282.6555,178.9326,1286.6555,188.9326,1290.6555,178.9326,1286.6555,182.9326" style="stroke:#636E72;stroke-width:1;"/><line style="stroke:#636E72;stroke-width:1;" x1="1286.6555" x2="1286.6555" y1="304.8076" y2="309.8076"/><line style="stroke:#636E72;stroke-width:1;" x1="1286.6555" x2="1674.6973" y1="309.8076" y2="309.8076"/><line style="stroke:#636E72;stroke-width:1;" x1="1674.6973" x2="1674.6973" y1="309.8076" y2="324.8076"/><polygon fill="#636E72" points="1670.6973,314.8076,1674.6973,324.8076,1678.6973,314.8076,1674.6973,318.8076" style="stroke:#636E72;stroke-width:1;"/><line style="stroke:#636E72;stroke-width:1;" x1="1674.6973" x2="1674.6973" y1="456.5576" y2="461.5576"/><line style="stroke:#636E72;stroke-width:1;" x1="1674.6973" x2="1286.6555" y1="461.5576" y2="461.5576"/><line style="stroke:#636E72;stroke-width:1;" x1="1286.6555" x2="1286.6555" y1="461.5576" y2="476.5576"/><polygon fill="#636E72" points="1282.6555,466.5576,1286.6555,476.5576,1290.6555,466.5576,1286.6555,470.5576" style="stroke:#636E72;stroke-width:1;"/><line style="stroke:#636E72;stroke-width:1;" x1="1286.6555" x2="1286.6555" y1="951.9204" y2="956.9204"/><line style="stroke:#636E72;stroke-width:1;" x1="1286.6555" x2="1674.6973" y1="956.9204" y2="956.9204"/><line style="stroke:#636E72;stroke-width:1;" x1="1674.6973" x2="1674.6973" y1="956.9204" y2="971.9204"/><polygon fill="#636E72" points="1670.6973,961.9204,1674.6973,971.9204,1678.6973,961.9204,1674.6973,965.9204" style="stroke:#636E72;stroke-width:1;"/><line style="stroke:#636E72;stroke-width:1;" x1="1674.6973" x2="1674.6973" y1="1033.8267" y2="1038.8267"/><line style="stroke:#636E72;stroke-width:1;" x1="1674.6973" x2="1286.6555" y1="1038.8267" y2="1038.8267"/><line style="stroke:#636E72;stroke-width:1;" x1="1286.6555" x2="1286.6555" y1="1038.8267" y2="1053.8267"/><polygon fill="#636E72" points="1282.6555,1043.8267,1286.6555,1053.8267,1290.6555,1043.8267,1286.6555,1047.8267" style="stroke:#636E72;stroke-width:1;"/><line style="stroke:#636E72;stroke-width:1;" x1="1286.6555" x2="1286.6555" y1="1087.7954" y2="1092.7954"/><line style="stroke:#636E72;stroke-width:1;" x1="1286.6555" x2="1674.6973" y1="1092.7954" y2="1092.7954"/><line style="stroke:#636E72;stroke-width:1;" x1="1674.6973" x2="1674.6973" y1="1092.7954" y2="1107.7954"/><polygon fill="#636E72" points="1670.6973,1097.7954,1674.6973,1107.7954,1678.6973,1097.7954,1674.6973,1101.7954" style="stroke:#636E72;stroke-width:1;"/><line style="stroke:#636E72;stroke-width:1;" x1="1674.6973" x2="1674.6973" y1="1197.6392" y2="1202.6392"/><line style="stroke:#636E72;stroke-width:1;" x1="1674.6973" x2="1286.6555" y1="1202.6392" y2="1202.6392"/><line style="stroke:#636E72;stroke-width:1;" x1="1286.6555" x2="1286.6555" y1="1202.6392" y2="1217.6392"/><polygon fill="#636E72" points="1282.6555,1207.6392,1286.6555,1217.6392,1290.6555,1207.6392,1286.6555,1211.6392" style="stroke:#636E72;stroke-width:1;"/><line style="stroke:#636E72;stroke-width:1;" x1="1286.6555" x2="1286.6555" y1="1251.6079" y2="1256.6079"/><line style="stroke:#636E72;stroke-width:1;" x1="1286.6555" x2="1674.6973" y1="1256.6079" y2="1256.6079"/><line style="stroke:#636E72;stroke-width:1;" x1="1674.6973" x2="1674.6973" y1="1256.6079" y2="1271.6079"/><polygon fill="#636E72" points="1670.6973,1261.6079,1674.6973,1271.6079,1678.6973,1261.6079,1674.6973,1265.6079" style="stroke:#636E72;stroke-width:1;"/><line style="stroke:#636E72;stroke-width:1;" x1="1674.6973" x2="1674.6973" y1="1333.5142" y2="1338.5142"/><line style="stroke:#636E72;stroke-width:1;" x1="1674.6973" x2="1286.6555" y1="1338.5142" y2="1338.5142"/><line style="stroke:#636E72;stroke-width:1;" x1="1286.6555" x2="1286.6555" y1="1338.5142" y2="1353.5142"/><polygon fill="#636E72" points="1282.6555,1343.5142,1286.6555,1353.5142,1290.6555,1343.5142,1286.6555,1347.5142" style="stroke:#636E72;stroke-width:1;"/><line style="stroke:#636E72;stroke-width:1;" x1="1286.6555" x2="1286.6555" y1="1387.4829" y2="1392.4829"/><line style="stroke:#636E72;stroke-width:1;" x1="1286.6555" x2="1674.6973" y1="1392.4829" y2="1392.4829"/><line style="stroke:#636E72;stroke-width:1;" x1="1674.6973" x2="1674.6973" y1="1392.4829" y2="1407.4829"/><polygon fill="#636E72" points="1670.6973,1397.4829,1674.6973,1407.4829,1678.6973,1397.4829,1674.6973,1401.4829" style="stroke:#636E72;stroke-width:1;"/><line style="stroke:#636E72;stroke-width:1;" x1="1674.6973" x2="1674.6973" y1="1539.2329" y2="1544.2329"/><line style="stroke:#636E72;stroke-width:1;" x1="1674.6973" x2="1286.6555" y1="1544.2329" y2="1544.2329"/><line style="stroke:#636E72;stroke-width:1;" x1="1286.6555" x2="1286.6555" y1="1544.2329" y2="1559.2329"/><polygon fill="#636E72" points="1282.6555,1549.2329,1286.6555,1559.2329,1290.6555,1549.2329,1286.6555,1553.2329" style="stroke:#636E72;stroke-width:1;"/><line style="stroke:#636E72;stroke-width:1;" x1="1286.6555" x2="1286.6555" y1="1593.2017" y2="1598.2017"/><line style="stroke:#636E72;stroke-width:1;" x1="1286.6555" x2="1932.5889" y1="1598.2017" y2="1598.2017"/><line style="stroke:#636E72;stroke-width:1;" x1="1932.5889" x2="1932.5889" y1="1598.2017" y2="1613.2017"/><polygon fill="#636E72" points="1928.5889,1603.2017,1932.5889,1613.2017,1936.5889,1603.2017,1932.5889,1607.2017" style="stroke:#636E72;stroke-width:1;"/><line style="stroke:#636E72;stroke-width:1;" x1="1932.5889" x2="1932.5889" y1="1730.9829" y2="1735.9829"/><line style="stroke:#636E72;stroke-width:1;" x1="1932.5889" x2="1286.6555" y1="1735.9829" y2="1735.9829"/><line style="stroke:#636E72;stroke-width:1;" x1="1286.6555" x2="1286.6555" y1="1735.9829" y2="1750.9829"/><polygon fill="#636E72" points="1282.6555,1740.9829,1286.6555,1750.9829,1290.6555,1740.9829,1286.6555,1744.9829" style="stroke:#636E72;stroke-width:1;"/><text fill="#000000" font-family="sans-serif" font-size="18" lengthAdjust="spacing" textLength="240.2314" x="30.7217" y="71.75">Sistem Automat (Cron Job)</text><text fill="#000000" font-family="sans-serif" font-size="18" lengthAdjust="spacing" textLength="219.8057" x="292.3965" y="71.75">Backend (Service Layer)</text><text fill="#000000" font-family="sans-serif" font-size="18" lengthAdjust="spacing" textLength="120.8232" x="533.6455" y="71.75">Baza de Date</text><text fill="#000000" font-family="sans-serif" font-size="18" lengthAdjust="spacing" textLength="127.5205" x="675.9121" y="71.75">Serviciu Email</text><text fill="#000000" font-family="sans-serif" font-size="18" lengthAdjust="spacing" textLength="240.2314" x="819.1543" y="71.75">Sistem Automat (Cron Job)</text><text fill="#000000" font-family="sans-serif" font-size="18" lengthAdjust="spacing" textLength="219.8057" x="1189.2217" y="71.75">Backend (Service Layer)</text><text fill="#000000" font-family="sans-serif" font-size="18" lengthAdjust="spacing" textLength="120.8232" x="1613.2856" y="71.75">Baza de Date</text><text fill="#000000" font-family="sans-serif" font-size="18" lengthAdjust="spacing" textLength="127.5205" x="1867.8286" y="71.75">Serviciu Email</text><?plantuml-src fLRBRXit5DtFLrp42uq4Lt3zREIenbGQjGfaMPNa14Mc4EWPIYOyGmeansbK5GZWVLVT60Mww0Vq9-A5loDVqalEZ1wk7t0J1474kVVot7iE3rc2-XVySKhWDORjD-tXJz1iUz_tlMFOs8NF7_y0_vSfaqHIyCu49mdb6cwl6VIfqfA5jtyoN9KK2_Jz7x_Q1xSdHKWLUAaM2T6sH4CA3g_5MHcZlWYbPZgcKAaq6Pb8aX2845QesINJHDFd8OQ6uBfISHnrmVYKO3aWMQaFyAi3y1q9BoPIf3ngY5X8s6YrVCyxC5-4ZAZCLxURExix-xYAc1B1e_-aDLl-llzo9U3UR4zAyJvVtD_Pzm-sdTySPxxHslFzrZTp632bQRAOghiOASnDbDzwwH_CBMRA8t07L5woa4A7VA0oZsdwJRzXOcPsRaqpiTNaB8Ubu2U4nVZ9cJ-uwznHcaZjr8eLK1IBXZ7XjzUKp6wk0bwfp5ZCMGWnWQsjsjPUfNA8DH_0E7TgRSwG79CCKokYD3P0BwbaOnOYPG4d1QCKg6LPKwo9cPfACR4Rmp8cDXc6KmfX2X7H9Cz2zby1cR4Cpt8U26BWT_p645ILHPluRqAJCof7-2FWINNCfD8ZKtqJacfCYXy1JwlKJ2tWhVx9CQZqJ8MIJJLAJO4A-EkJTXUoMWeIEEckbeOw5cDH7fKg4vEQcAHgVcGHgOru-uFVzp4NfwzJXSkbhBzImBrk4p_WP4UHOVOLD4xxVRyx73MzeV_uu7kI9VJs6hDY99nOe9AX5WEESxj_vcmCRiT6JmI9RwwEog3FAGVtNPFOKzZ5cfmLAJ-NKUIrZfYSMv9g6F9NrwYDB-i7F0-6oSsLOhhwuX2Jb1PJXyQeB_TTDyqFE6wynlG26Uw3FR8nYkBJxpoaKmeCjO6C4nGLup1cD9EIRJA5rGQBAjZU-tE6JkCU4zD1jbis5IELJ9r4OyzCsOvnMzDVJrAMZm-r6wRITkKkHRIc35me7zgyUXrwnCZzwvhnivJ4R6P4cjEy15YlsuGxeiKAfpr3yntX3VnXm9TIiTtHg5J8oEhgg2ZuW3XMqMtNu3ZL1jYdVpZ8p4yrZKPXp12TUXXUkplm-qDeTuSdz-GzEY8yN2iPH6zY0Q84BmVyZTSvzGVW7cq2_ksUl7NB65rQAr0qNNv6dpltif0BvYaAYbEU3NyLofA9PKF_dunT1CdJs02KT8Q1DrUepal6j31hJy5429X3xXLAIF3an36E-wvaLZthAFCSz7obp0fwbnjmWDn1SSLweVrEbVcIkvUvEKOQxG6-pKWB39dMlvOG14UpJN3hPunahmP3j39pu2bmeVDhOp6BzHlEvkRnODqRmfihZV4PqpLpXQ5DBLuHvZgwL5KeRX4qg4ebu077bmHUN3pLcFBvuzzcrdcCuOHbY_q5IMWin32dQVQbm_W5ye5dYWkSzlAuFztwmb3nxO8GKav90ViuTw6DTXCIFBNQ7DgrivIVlXVsNiOTSiyhN7Oei6BXTVXVut6FN2B80hQOcdT2dbDCVYpanJfOIQP2cdcE6ITnWRYtsAe6tTnkgm6txxOqVxTb7-tgGlFvCD6SghONin-G2M5ybU5iJtINX4Xyak3B84eOHsj78WLMSSKqso96gp0jMjYEkNx-1G00?></g></svg>